<svg xmlns="http://www.w3.org/2000/svg" xmlns:xlink="http://www.w3.org/1999/xlink" version="1.1" x="0px" y="0px" viewBox="0 0 100 125" enable-background="new 0 0 100 100" xml:space="preserve"><g><path fill="#000000" d="M84.2,15.04c-0.16-0.15-0.26-0.38-0.26-0.61c0-0.24,0.1-0.46,0.26-0.62c0.32-0.32,0.91-0.33,1.24,0   c0.16,0.16,0.25,0.39,0.25,0.62s-0.09,0.45-0.25,0.62c-0.17,0.16-0.39,0.25-0.62,0.25S84.36,15.21,84.2,15.04z M81.82,31.14   c-0.16,0.16-0.26,0.38-0.26,0.62c0,0.23,0.1,0.45,0.26,0.62c0.17,0.16,0.39,0.25,0.62,0.25s0.45-0.09,0.62-0.25   c0.16-0.17,0.25-0.39,0.25-0.62s-0.09-0.46-0.25-0.62C82.72,30.81,82.15,30.81,81.82,31.14z M61.69,18.36   c0.24,0,0.46-0.1,0.62-0.26c0.16-0.16,0.26-0.39,0.26-0.62s-0.1-0.45-0.26-0.62c-0.32-0.32-0.91-0.32-1.23,0   c-0.17,0.16-0.26,0.39-0.26,0.62c0,0.24,0.09,0.46,0.25,0.62C61.23,18.26,61.46,18.36,61.69,18.36z M87.753,20.666l-5.385-2.598   c-0.337-0.162-0.74-0.021-0.901,0.314c-0.162,0.336-0.021,0.739,0.314,0.901l5.385,2.598c0.095,0.045,0.195,0.067,0.293,0.067   c0.251,0,0.492-0.141,0.608-0.382C88.23,21.231,88.089,20.828,87.753,20.666z M71.318,35.32l-4.491,3.235   c-0.303,0.218-0.371,0.64-0.153,0.942c0.132,0.183,0.339,0.281,0.548,0.281c0.137,0,0.275-0.042,0.394-0.127l4.491-3.235   c0.303-0.218,0.371-0.64,0.153-0.942C72.043,35.17,71.62,35.102,71.318,35.32z M86.861,24.083l-7.264-3.665l0.979-8.073   c0.041-0.338-0.118-0.669-0.407-0.849c-0.29-0.18-0.657-0.175-0.941,0.011l-6.805,4.457l-6.505-4.884   c-0.272-0.205-0.64-0.232-0.938-0.072c-0.3,0.161-0.48,0.481-0.46,0.821l0.461,8.122l-7.485,3.191   c-0.313,0.133-0.521,0.437-0.531,0.777c-0.011,0.34,0.176,0.656,0.48,0.809l3.895,1.964c0.432,0.218,0.958,0.045,1.175-0.387   c0.218-0.432,0.044-0.958-0.387-1.175l-2.213-1.117l6.318-2.693c0.339-0.145,0.551-0.486,0.53-0.854l-0.389-6.856l5.49,4.122   c0.294,0.222,0.696,0.234,1.005,0.032l5.744-3.762l-0.826,6.814c-0.044,0.366,0.146,0.721,0.475,0.887l6.132,3.094l-6.318,2.694   c-0.339,0.145-0.551,0.486-0.53,0.854l0.389,6.854l-5.491-4.123c-0.295-0.222-0.697-0.234-1.005-0.032l-5.743,3.763l0.344-2.838   c0.058-0.48-0.284-0.916-0.763-0.974c-0.48-0.059-0.916,0.284-0.974,0.763l-0.57,4.708c-0.041,0.338,0.118,0.669,0.407,0.849   c0.289,0.18,0.656,0.175,0.941-0.011l6.804-4.458l6.505,4.885c0.155,0.116,0.339,0.175,0.525,0.175   c0.142,0,0.283-0.034,0.413-0.104c0.3-0.161,0.48-0.481,0.46-0.821l-0.46-8.12l7.484-3.192c0.313-0.133,0.521-0.437,0.531-0.777   C87.352,24.552,87.165,24.236,86.861,24.083z M37.694,42.419c-6.766-0.145-13.133,3.033-17.075,8.504   c-1.321,1.833-2.323,3.851-2.979,5.996c-0.145,0.476,0.123,0.979,0.598,1.124c0.088,0.027,0.176,0.04,0.264,0.04   c0.385,0,0.742-0.25,0.86-0.637c0.598-1.957,1.513-3.797,2.718-5.47c3.596-4.99,9.429-7.876,15.576-7.756   c0.496,0.015,0.909-0.383,0.919-0.88S38.191,42.43,37.694,42.419z M17.12,60.14c-0.17,0.16-0.27,0.4-0.27,0.63   c0,0.24,0.1,0.47,0.27,0.64c0.16,0.17,0.4,0.26,0.63,0.26c0.24,0,0.47-0.09,0.64-0.26c0.17-0.17,0.26-0.4,0.26-0.64   c0-0.24-0.09-0.47-0.26-0.64C18.05,59.8,17.46,59.8,17.12,60.14z M63.33,59.056c1.12,6.896-0.512,13.817-4.597,19.486   c-4.904,6.804-12.846,10.866-21.244,10.866c-5.507,0-10.787-1.707-15.268-4.936c-5.669-4.084-9.408-10.131-10.529-17.028   c-1.12-6.896,0.512-13.816,4.597-19.485c4.903-6.805,12.844-10.868,21.242-10.868c1.416,0,2.816,0.117,4.193,0.34l3.915-4.775   c0.224-0.273,0.558-0.433,0.911-0.436c0.101-0.017,2.931,0,6.447,1.729c3.05-5.491,6.493-5.858,9.829-6.211   c2.828-0.299,5.499-0.581,8.412-4.094c0.42-0.505,1.17-0.575,1.676-0.156c0.506,0.419,0.576,1.17,0.156,1.676   c-3.531,4.258-6.964,4.621-9.994,4.941c-3.088,0.326-5.569,0.588-8.016,5.027c3.306,2.189,4.739,4.662,4.804,4.775   c0.174,0.308,0.203,0.676,0.079,1.007l-2.177,5.775C60.653,50.21,62.581,54.441,63.33,59.056z M44.331,38.006   c3.015,0.813,5.879,2.153,8.471,4.021c1.136,0.818,2.189,1.719,3.165,2.686l1.533-4.068c-0.58-0.807-2.045-2.579-4.597-4.052   c-2.551-1.473-4.817-1.856-5.809-1.956L44.331,38.006z M60.981,59.437c-1.019-6.269-4.417-11.767-9.57-15.479   c-4.075-2.935-8.875-4.487-13.879-4.487c-7.635,0-14.854,3.693-19.312,9.879c-3.713,5.152-5.197,11.443-4.178,17.712   c1.018,6.269,4.417,11.766,9.571,15.479c4.074,2.935,8.872,4.486,13.876,4.486c7.635,0,14.855-3.692,19.313-9.877   C60.515,71.997,61.999,65.707,60.981,59.437z"/></g><text x="0" y="115" fill="#000000" font-size="5px" font-weight="bold" font-family="'Helvetica Neue', Helvetica, Arial-Unicode, Arial, Sans-serif">Created by Imogen Oh</text><text x="0" y="120" fill="#000000" font-size="5px" font-weight="bold" font-family="'Helvetica Neue', Helvetica, Arial-Unicode, Arial, Sans-serif">from the Noun Project</text></svg>