<svg xmlns:dc="http://purl.org/dc/elements/1.1/" xmlns:cc="http://creativecommons.org/ns#" xmlns:rdf="http://www.w3.org/1999/02/22-rdf-syntax-ns#" xmlns:svg="http://www.w3.org/2000/svg" xmlns="http://www.w3.org/2000/svg" xmlns:sodipodi="http://sodipodi.sourceforge.net/DTD/sodipodi-0.dtd" xmlns:inkscape="http://www.inkscape.org/namespaces/inkscape" version="1.1" x="0px" y="0px" viewBox="0 0 100 125"><g transform="translate(0,-952.36218)"><path d="m 38.074242,957.78541 c -2.45723,9.83705 -5.31132,15.67214 -9.47254,19.83681 -4.12932,4.1327 -9.75574,6.7839 -18.06972,9.7306 -0.8730102,0.2107 -1.5427602,1.0725 -1.5318602,1.9712 l 0,14.01718 c 10e-4,0.4646 0.17029,0.9271 0.46894,1.2828 l 35.3578802,42.2705 c 0.90378,1.4955 1.76929,1.6888 3.09498,1.2828 13.97434,-3.7987 27.60579,-7.1431 40.10978,-13.5791 -0.1999,-4.7366 0.19935,-9.6875 -0.0625,-13.7981 0.78084,-0.6366 1.58051,-1.2713 2.34468,-1.9086 0.86029,-0.7128 0.92242,-2.1898 0.12505,-2.9724 l -4.81442,-4.8184 c 0.98685,-1.1571 1.97239,-2.3301 2.93867,-3.473 0.61018,-0.717 0.61018,-1.8799 0,-2.5969 l -37.01479,-43.05275 c -1.11646,-0.90561 -1.89383,-0.75224 -2.93867,-0.12516 l -1.7507,1.75215 -5.28336,-6.60183 c -1.47099,-1.24711 -2.7044,-0.50579 -3.5014,0.7822 z m 2.78236,4.75583 33.76349,42.02016 c -5.49551,11.4716 -13.24825,21.0218 -25.76029,26.0006 -11.30702,-13.5034 -22.95777,-26.9418 -34.45127,-40.36188 7.2068,-2.6871 12.6977,-5.418 17.0068,-9.7307 4.18861,-4.19206 7.08296,-9.91062 9.44127,-17.92818 z m 9.03486,3.69202 34.48253,40.08034 c -10.32343,12.1732 -21.39812,24.5835 -35.35788,28.7227 l 0,-0.2816 c 14.78522,-5.4197 23.86795,-16.6824 29.82442,-29.5988 0.31301,-0.6718 0.21215,-1.5172 -0.2501,-2.0963 l -29.19917,-36.32573 z m -10.72303,7.32141 c -3.89911,9.75585 -7.04963,12.92675 -16.72544,15.83185 -1.2909,0.3748 -1.83099,2.2487 -0.93787,3.254 l 9.0036,10.01228 c 0.5794,0.6627 1.62159,0.8659 2.40721,0.4693 8.30145,-4.15418 13.77219,-9.66658 17.91341,-18.99198 0.32171,-0.6983 0.19393,-1.5807 -0.31263,-2.1589 l -8.0032,-9.01103 c -1.47249,-1.09222 -2.26809,-0.7226 -3.34508,0.59448 z m -26.16671,21.18225 32.01279,37.38948 0,8.7608 -32.01279,-38.2657 z m 69.99672,19.39878 3.03246,3.0349 c -8.1256,6.663 -17.07547,13.1277 -26.47933,17.6779 8.95747,-5.0313 16.52142,-12.7723 23.44687,-20.7128 z m 1.03166,9.8245 0,8.0411 c -5.78693,2.7568 -18.13024,7.2048 -35.01399,11.7644 l 0,-0.6258 c 12.70949,-3.505 24.52449,-11.0168 35.01399,-19.1797 z" style="text-indent:0;text-transform:none;direction:ltr;block-progression:tb;baseline-shift:baseline;color:#000000;enable-background:accumulate;" fill="#000000" fill-opacity="1" stroke="none" marker="none" visibility="visible" display="inline" overflow="visible"/></g><text x="0" y="115" fill="#000000" font-size="5px" font-weight="bold" font-family="'Helvetica Neue', Helvetica, Arial-Unicode, Arial, Sans-serif">Created by sandra</text><text x="0" y="120" fill="#000000" font-size="5px" font-weight="bold" font-family="'Helvetica Neue', Helvetica, Arial-Unicode, Arial, Sans-serif">from the Noun Project</text></svg>