<svg xmlns="http://www.w3.org/2000/svg" xmlns:xlink="http://www.w3.org/1999/xlink" version="1.1" x="0px" y="0px" viewBox="0 0 100 125" enable-background="new 0 0 100 100" xml:space="preserve"><g><g><path fill="#000000" d="M64.227,73.101c-0.175,0-0.352-0.062-0.494-0.187c-0.312-0.273-0.342-0.747-0.069-1.059    c2.536-2.89,2.136-6.589,2.131-6.626c-0.048-0.41,0.245-0.783,0.656-0.833c0.407-0.042,0.783,0.243,0.833,0.653    c0.021,0.178,0.497,4.388-2.494,7.796C64.643,73.015,64.436,73.101,64.227,73.101z"/></g><g><path fill="#000000" d="M68.757,80.071c-0.175,0-0.352-0.062-0.494-0.187c-0.312-0.273-0.342-0.747-0.069-1.059    c2.536-2.89,2.136-6.589,2.131-6.626c-0.048-0.41,0.245-0.783,0.656-0.833c0.406-0.043,0.783,0.243,0.833,0.653    c0.021,0.178,0.497,4.388-2.494,7.796C69.173,79.985,68.966,80.071,68.757,80.071z"/></g><g><path fill="#000000" d="M60.052,65.148c-0.175,0-0.352-0.062-0.494-0.187c-0.312-0.273-0.342-0.747-0.069-1.059    c2.536-2.89,2.136-6.589,2.131-6.626c-0.048-0.41,0.245-0.783,0.656-0.833c0.411-0.043,0.783,0.243,0.833,0.653    c0.021,0.178,0.497,4.388-2.494,7.796C60.468,65.062,60.26,65.148,60.052,65.148z"/></g><g><path fill="#000000" d="M55.537,58.191c-0.175,0-0.352-0.062-0.494-0.187c-0.312-0.273-0.342-0.747-0.069-1.059    c2.536-2.89,2.136-6.589,2.131-6.626c-0.048-0.41,0.245-0.783,0.656-0.833c0.409-0.042,0.783,0.243,0.833,0.653    c0.021,0.178,0.497,4.388-2.494,7.796C55.953,58.105,55.746,58.191,55.537,58.191z"/></g><path fill="#000000" d="M47.737,19.264l0.83-7.905c0.052-0.495,0.494-0.849,0.989-0.802c0.495,0.053,0.853,0.495,0.801,0.989   l-0.83,7.905c-0.048,0.463-0.439,0.807-0.894,0.807c-0.031,0-0.063-0.002-0.095-0.005C48.043,20.2,47.685,19.758,47.737,19.264z    M31.456,30.173c0.345,0,0.673-0.199,0.823-0.534c0.202-0.454-0.002-0.986-0.456-1.188l-7.26-3.234   c-0.453-0.201-0.986,0.002-1.188,0.456c-0.202,0.454,0.002,0.986,0.456,1.188l7.26,3.234   C31.209,30.147,31.333,30.173,31.456,30.173z M34.787,48.043l-4.392,5.37c-0.314,0.385-0.258,0.951,0.127,1.266   c0.167,0.137,0.369,0.204,0.569,0.204c0.261,0,0.519-0.113,0.697-0.331l4.392-5.37c0.314-0.385,0.258-0.951-0.127-1.266   C35.668,47.602,35.103,47.656,34.787,48.043z M62.626,32.576c0.072,0.441,0.454,0.755,0.887,0.755c0.048,0,0.097-0.004,0.146-0.012   l6.845-1.119c0.491-0.081,0.823-0.543,0.743-1.034c-0.08-0.49-0.544-0.819-1.033-0.743l-6.845,1.119   C62.879,31.623,62.546,32.085,62.626,32.576z M77.505,89.198c-0.593,0.343-1.253,0.517-1.928,0.517c-0.396,0-0.796-0.06-1.192-0.18   c-1.046-0.318-1.93-1.025-2.488-1.991L49.758,49.196l-2.682,3.798c-0.649,1.03-1.468,1.191-1.896,1.191   c-0.871,0-1.619-0.618-2.002-1.652l-3.473-8.287l-8.765-2.701c-0.938-0.235-1.603-0.829-1.771-1.612   c-0.168-0.784,0.197-1.599,1-2.234l6.897-5.858l-0.229-9.166c-0.063-0.959,0.277-1.548,0.575-1.864   c0.673-0.719,1.804-0.767,2.85-0.069l7.786,4.759l8.558-3.057c0.996-0.396,2.076-0.217,2.628,0.515   c0.411,0.542,0.507,1.303,0.271,2.141l-2.03,8.887l5.468,7.19c0.625,0.75,0.813,1.621,0.488,2.354   c-0.326,0.733-1.099,1.178-2.121,1.22l-8.993,0.824l-1.257,1.78l22.612,39.166c0.297,0.514,0.762,0.889,1.31,1.056   c0.523,0.158,1.055,0.105,1.499-0.151c0.945-0.545,1.223-1.839,0.62-2.885L56,47.999c-0.283-0.49-0.115-1.117,0.375-1.4   c0.492-0.282,1.118-0.115,1.4,0.375l21.1,36.54C80.043,85.539,79.429,88.089,77.505,89.198z M50.848,43.927   c0.182-0.257,0.466-0.422,0.78-0.45l9.541-0.873c0.06-0.003,0.111-0.007,0.155-0.013c-0.018-0.023-0.038-0.05-0.062-0.078   l-5.801-7.627c-0.193-0.253-0.264-0.579-0.192-0.89l2.156-9.43c0.015-0.056,0.027-0.104,0.036-0.146   c-0.029,0.01-0.06,0.021-0.094,0.034l-9.077,3.243c-0.307,0.108-0.645,0.073-0.922-0.096l-8.26-5.05   c-0.046-0.03-0.087-0.056-0.124-0.076c0,0.03,0.001,0.064,0.003,0.103l0.244,9.722c0.008,0.324-0.131,0.636-0.379,0.846   l-7.318,6.215c-0.041,0.032-0.075,0.062-0.105,0.089c0.028,0.009,0.059,0.018,0.093,0.026l9.298,2.864   c0.304,0.094,0.551,0.318,0.675,0.612l3.685,8.793c0.02,0.053,0.039,0.098,0.056,0.136c0.018-0.023,0.036-0.051,0.055-0.081   L50.848,43.927z M75.08,40.95c0.32,0,0.62-0.12,0.84-0.351c0.23-0.22,0.35-0.52,0.35-0.84c0-0.31-0.12-0.62-0.34-0.84   c-0.45-0.44-1.24-0.44-1.69,0c-0.22,0.22-0.35,0.53-0.35,0.84c0,0.32,0.13,0.62,0.35,0.84C74.47,40.83,74.77,40.95,75.08,40.95z    M19.64,34.77c-0.22,0.221-0.35,0.521-0.35,0.84c0,0.32,0.13,0.62,0.35,0.841c0.23,0.22,0.53,0.35,0.84,0.35   c0.32,0,0.62-0.13,0.84-0.35c0.23-0.221,0.35-0.521,0.35-0.841c0-0.319-0.13-0.619-0.35-0.84   C20.88,34.319,20.09,34.319,19.64,34.77z M59.21,13.056h0.995l0,0.994c0,0.497,0.403,0.9,0.9,0.9h0   c0.497-0.001,0.9-0.403,0.899-0.9l0-0.994h0.992c0.497,0,0.9-0.403,0.9-0.9s-0.403-0.9-0.9-0.9h-0.993l0-0.993   c0-0.497-0.403-0.9-0.9-0.9h0c-0.497,0.001-0.9,0.403-0.899,0.9l0,0.993H59.21c-0.497,0-0.9,0.403-0.9,0.9   S58.713,13.056,59.21,13.056z M47.661,66.715h-0.994l0-0.995c0-0.497-0.403-0.899-0.9-0.9c-0.497,0-0.9,0.403-0.9,0.9l0,0.995   h-0.997c-0.497,0-0.9,0.403-0.9,0.9s0.403,0.9,0.9,0.9h0.997l0,0.992c0,0.497,0.403,0.899,0.9,0.9c0.497,0,0.9-0.403,0.9-0.9   l0-0.992h0.994c0.497,0,0.9-0.403,0.9-0.9S48.158,66.715,47.661,66.715z"/></g><text x="0" y="115" fill="#000000" font-size="5px" font-weight="bold" font-family="'Helvetica Neue', Helvetica, Arial-Unicode, Arial, Sans-serif">Created by Imogen Oh</text><text x="0" y="120" fill="#000000" font-size="5px" font-weight="bold" font-family="'Helvetica Neue', Helvetica, Arial-Unicode, Arial, Sans-serif">from the Noun Project</text></svg>