<svg xmlns="http://www.w3.org/2000/svg" xmlns:xlink="http://www.w3.org/1999/xlink" version="1.1" x="0px" y="0px" viewBox="0 0 100 125" enable-background="new 0 0 100 100" xml:space="preserve"><g><path fill="#000000" d="M77.79,75.28c0.22,0.22,0.35,0.52,0.35,0.84c0,0.31-0.13,0.62-0.35,0.84c-0.22,0.22-0.53,0.35-0.84,0.35   c-0.32,0-0.62-0.13-0.85-0.35c-0.22-0.22-0.34-0.53-0.34-0.84c0-0.32,0.12-0.62,0.35-0.84C76.54,74.84,77.35,74.83,77.79,75.28z    M22.13,75.54c-0.22,0.23-0.35,0.53-0.35,0.84c0,0.32,0.13,0.62,0.35,0.85c0.23,0.22,0.53,0.34,0.84,0.34s0.62-0.12,0.85-0.34   c0.22-0.23,0.34-0.53,0.34-0.85c0-0.31-0.12-0.62-0.34-0.84C23.37,75.1,22.58,75.1,22.13,75.54z M22.97,25.29   c0.31,0,0.62-0.13,0.85-0.35c0.22-0.22,0.34-0.53,0.34-0.84c0-0.31-0.12-0.62-0.34-0.84c-0.44-0.44-1.24-0.45-1.69,0   c-0.22,0.22-0.35,0.53-0.35,0.84c0,0.31,0.13,0.62,0.35,0.84C22.36,25.16,22.66,25.29,22.97,25.29z M76.61,24.99   c0.31,0,0.62-0.13,0.84-0.35c0.22-0.23,0.35-0.53,0.35-0.84c0-0.32-0.13-0.62-0.35-0.85c-0.45-0.44-1.24-0.44-1.68,0   c-0.22,0.23-0.35,0.53-0.35,0.85c0,0.31,0.13,0.61,0.35,0.84C75.99,24.86,76.3,24.99,76.61,24.99z M83.02,18.83v62.34   c0,0.657-0.533,1.19-1.19,1.19H18.173c-0.657,0-1.19-0.533-1.19-1.19V18.83c0-0.657,0.533-1.19,1.19-1.19H81.83   C82.487,17.64,83.02,18.173,83.02,18.83z M80.64,20.02H28.727v7.431h43.5h8.414V20.02z M34.799,70.648l36.477-36.476v-4.821h-6.074   L28.727,65.828v4.821H34.799z M55.161,29.352v7.354l7.354-7.354H55.161z M53.71,29.352h-7.446v16.25l7.446-7.446V29.352z    M44.814,29.352h-7.416v25.117l7.416-7.417V29.352z M35.948,29.352h-7.221V63.14l7.221-7.221V29.352z M37.486,70.648h7.328v-7.327   L37.486,70.648z M46.264,70.648h7.446V54.425l-7.446,7.446V70.648z M55.161,53.083v17.566h7.444V45.531l-7.462,7.462   C55.146,53.023,55.161,53.051,55.161,53.083z M64.055,70.648h7.221V36.86l-7.221,7.22V70.648z M19.363,20.02v50.628h7.463V28.401   V20.02H19.363z M19.363,79.98h51.913v-7.431h-43.5h-8.414V79.98z M80.64,79.98V29.352h-7.463v42.247v8.381H80.64z"/></g><text x="0" y="115" fill="#000000" font-size="5px" font-weight="bold" font-family="'Helvetica Neue', Helvetica, Arial-Unicode, Arial, Sans-serif">Created by Imogen Oh</text><text x="0" y="120" fill="#000000" font-size="5px" font-weight="bold" font-family="'Helvetica Neue', Helvetica, Arial-Unicode, Arial, Sans-serif">from the Noun Project</text></svg>