<svg xmlns="http://www.w3.org/2000/svg" xmlns:xlink="http://www.w3.org/1999/xlink" version="1.1" x="0px" y="0px" viewBox="0 0 100 125" enable-background="new 0 0 100 100" xml:space="preserve"><g><path fill="#000000" d="M82.914,49.232c0-6.496-1.972-12.395-5.417-17.239c0.001-0.055,0.016-0.108,0.007-0.165   c-0.059-0.371-0.337-0.654-0.681-0.735C70.955,23.48,61.32,18.697,50,18.697c-11.358,0-21.019,4.816-26.88,12.475   c-0.317,0.091-0.578,0.349-0.642,0.696c-0.01,0.055,0.003,0.107,0.003,0.161c-3.429,4.837-5.393,10.723-5.393,17.203   c0,11.773,6.026,18.825,18.396,21.562c0.394,3.198,1.569,6.266,4.921,8.157c2.655,1.501,5.86,2.262,9.592,2.262   c0.001,0,0.071,0,0.072,0c3.667,0,6.873-0.761,9.528-2.261c3.352-1.891,4.527-4.958,4.921-8.155   C76.889,68.055,82.915,61.002,82.914,49.232z M80.119,53.942c-0.56,0.089-1.12,0.151-1.674,0.151   c-5.897,0-10.695-4.792-10.695-10.682c0-4.856,3.205-8.99,7.775-10.273c3.198,4.474,5.009,9.969,5.009,16.094   C80.534,50.918,80.386,52.479,80.119,53.942z M61.831,23.043c0.084,0.573,0.142,1.149,0.142,1.721   c0,6.605-5.368,11.979-11.966,11.979c-6.605,0-11.979-5.374-11.979-11.979c0-0.55,0.041-1.12,0.122-1.693   c0.001-0.007-0.002-0.014-0.001-0.021c3.594-1.277,7.579-1.974,11.851-1.974C54.264,21.077,58.242,21.771,61.831,23.043z    M24.417,33.222c4.416,1.359,7.51,5.458,7.51,10.188c0,5.89-4.792,10.682-10.682,10.682c-0.465,0-0.914-0.038-1.352-0.095   c-0.274-1.479-0.426-3.058-0.426-4.766C19.468,43.145,21.257,37.681,24.417,33.222z M58.515,77.035   c-2.321,1.312-5.163,1.977-8.446,1.977v1.1l-0.139-1.1c-3.281,0-6.122-0.665-8.444-1.977c-4.124-2.326-4.047-7.042-3.973-11.604   c0.009-0.596,0.019-1.184,0.019-1.759c0-4.484,3.938-6.758,11.705-6.758c0.248,0,0.495,0.002,0.784,0.007   c0.262-0.005,0.524-0.007,0.787-0.007c2.884,0,11.661,0,11.661,6.758c0,0.575,0.01,1.164,0.019,1.761   C62.562,69.994,62.639,74.709,58.515,77.035z M64.691,68.309c0.025-0.995,0.011-1.976-0.004-2.911   c-0.009-0.584-0.019-1.162-0.019-1.725c0-4.087-2.405-8.958-13.861-8.958c-0.277,0-0.553,0.003-0.787,0.008   c-0.261-0.005-0.522-0.008-0.784-0.008c-11.492,0-13.905,4.872-13.905,8.958c0,0.563-0.009,1.14-0.019,1.723   c-0.015,0.936-0.029,1.917-0.004,2.912c-8.257-1.981-13.147-6.014-14.986-12.463c0.305,0.022,0.608,0.049,0.922,0.049   c6.883,0,12.482-5.599,12.482-12.482c0-5.301-3.322-9.928-8.146-11.701c2.784-3.38,6.413-6.089,10.683-7.925   c-0.024,0.33-0.037,0.657-0.037,0.979c0,7.598,6.181,13.779,13.779,13.779c7.591,0,13.766-6.181,13.766-13.779   c0-0.328-0.027-0.657-0.051-0.986c4.237,1.819,7.843,4.498,10.62,7.838c-4.97,1.708-8.391,6.368-8.391,11.795   c0,6.883,5.605,12.482,12.495,12.482c0.412,0,0.826-0.033,1.241-0.075C77.853,62.281,72.96,66.322,64.691,68.309z M44.535,64.126   v3.047c0,0.657-0.533,1.19-1.19,1.19s-1.19-0.533-1.19-1.19v-3.047c0-0.657,0.533-1.19,1.19-1.19S44.535,63.469,44.535,64.126z    M57.843,64.126v3.047c0,0.657-0.533,1.19-1.19,1.19s-1.19-0.533-1.19-1.19v-3.047c0-0.657,0.533-1.19,1.19-1.19   S57.843,63.469,57.843,64.126z M53.951,71.568c-0.205,0.904-1.293,2.613-3.951,2.613c-2.655,0-3.744-1.709-3.949-2.613   c-0.11-0.485,0.194-0.967,0.679-1.077c0.49-0.107,0.967,0.195,1.077,0.679c0.03,0.109,0.379,1.211,2.193,1.211   c1.899,0,2.193-1.199,2.195-1.211c0.11-0.485,0.593-0.787,1.077-0.679C53.756,70.602,54.06,71.083,53.951,71.568z"/></g><text x="0" y="115" fill="#000000" font-size="5px" font-weight="bold" font-family="'Helvetica Neue', Helvetica, Arial-Unicode, Arial, Sans-serif">Created by Imogen Oh</text><text x="0" y="120" fill="#000000" font-size="5px" font-weight="bold" font-family="'Helvetica Neue', Helvetica, Arial-Unicode, Arial, Sans-serif">from the Noun Project</text></svg>