<svg xmlns="http://www.w3.org/2000/svg" xmlns:xlink="http://www.w3.org/1999/xlink" version="1.1" x="0px" y="0px" viewBox="0 0 100 125" enable-background="new 0 0 100 100" xml:space="preserve"><g><path fill="#000000" d="M90.225,59.291c-0.27-0.365-0.728-0.537-1.171-0.44c-1.592,0.348-3.192,0.524-4.753,0.524   c-1.472,0-2.86-0.167-3.807-0.458c-3.497-1.074-5.497-3.069-6.487-6.467c-0.605-2.08-0.783-4.432-0.971-6.921   c-0.1-1.319-0.203-2.684-0.375-4.021c-0.488-3.793-2.077-7.811-4.594-11.618c-4.687-7.093-13.133-11.161-23.173-11.161   c-17.484,0-28.346,11.405-28.346,29.764c0,2.521,0.25,4.953,0.692,7.292c-0.96,0.063-1.936,0.202-2.885,0.435   c-1.775,0.432-3.121,1.476-3.892,3.018c-0.906,1.814-0.886,4.11,0.051,6.291c0.469,1.126,1.219,2.47,2.127,2.47   c0.449,0,0.845,0,2.679-3.119c1.663,3.119,2.402,3.119,2.782,3.119c0.355,0,1.026-0.004,2.472-2.556   c3.692,7.026,9.763,12.389,17.594,15.09c4.574,1.579,9.406,2.379,14.361,2.379c15.982,0,29.75-8.154,37.771-22.371   C90.524,60.144,90.494,59.655,90.225,59.291z M18.103,65.958c-0.471-0.615-1.251-1.975-1.917-3.37   c-0.145-0.304-0.447-0.501-0.783-0.512c-0.328-0.003-0.65,0.166-0.814,0.46c-0.642,1.146-1.426,2.453-1.941,3.21   c-0.167-0.29-0.345-0.636-0.474-0.921c-0.731-1.701-0.767-3.445-0.098-4.785c0.526-1.054,1.462-1.771,2.708-2.074   c0.938-0.229,1.901-0.365,2.84-0.408c0.495,2.049,1.155,4.012,1.978,5.873C19.053,64.496,18.478,65.466,18.103,65.958z    M52.531,80.609c-4.699,0-9.279-0.758-13.611-2.253c-12.38-4.27-20.07-15.713-20.07-29.865c0-13.277,6.842-27.464,26.046-27.464   c9.254,0,17,3.692,21.254,10.129c2.325,3.516,3.788,7.197,4.231,10.644c0.165,1.278,0.266,2.611,0.363,3.901   c0.188,2.498,0.383,5.08,1.056,7.39c1.213,4.166,3.761,6.715,8.019,8.023c1.792,0.552,4.556,0.708,7.217,0.401   C79.299,73.685,66.853,80.609,52.531,80.609z M27.428,41.631c-3.013,0-3.013,3.432-3.013,4.898s0,4.899,3.012,4.899   s3.012-3.433,3.012-4.899S30.44,41.631,27.428,41.631z M27.428,49.628c-0.663,0-1.212-0.233-1.212-3.099   c0-2.865,0.549-3.098,1.213-3.098c0.663,0,1.212,0.233,1.212,3.098C28.64,49.395,28.091,49.628,27.428,49.628z M50.383,46.529   c0-1.466,0-4.898-3.011-4.898c-3.013,0-3.013,3.432-3.013,4.898s0,4.899,3.012,4.899C50.383,51.428,50.383,47.995,50.383,46.529z    M46.159,46.529c0-2.865,0.549-3.098,1.213-3.098c0.663,0,1.211,0.233,1.211,3.098c0,2.866-0.549,3.099-1.212,3.099   S46.159,49.395,46.159,46.529z M54.998,55.741c-1.279,0-2.631,0.165-3.911,0.478c-1.775,0.432-3.121,1.475-3.892,3.018   c-0.906,1.814-0.887,4.11,0.067,6.329c1.037,2.245,1.611,2.432,2.11,2.432c0.45,0,0.846,0,2.68-3.118   c1.662,3.118,2.402,3.118,2.782,3.118c0.377,0,1.111,0,2.757-3.073c1.729,3.073,2.284,3.073,2.704,3.073   c0.796,0,1.425-0.721,2.119-2.451c0.009-0.021,0.018-0.041,0.025-0.062c1.01-2.803,0.901-5.106-0.321-6.846   C60.804,56.77,58.276,55.741,54.998,55.741z M60.748,64.865c-0.007,0.017-0.014,0.032-0.019,0.044   c-0.175,0.437-0.321,0.739-0.436,0.946c-0.506-0.714-1.307-2.093-1.931-3.294c-0.157-0.303-0.454-0.491-0.814-0.485   c-0.341,0.006-0.65,0.205-0.797,0.513c-0.653,1.372-1.445,2.75-1.918,3.37c-0.471-0.615-1.251-1.975-1.916-3.37   c-0.145-0.304-0.447-0.501-0.783-0.512c-0.01,0-0.02,0-0.029,0c-0.325,0-0.626,0.175-0.785,0.46   c-0.642,1.146-1.426,2.453-1.942,3.21c-0.146-0.254-0.313-0.573-0.474-0.921c-0.731-1.702-0.767-3.446-0.098-4.786   c0.526-1.053,1.462-1.77,2.708-2.073c1.143-0.279,2.347-0.427,3.484-0.427c2.637,0,4.695,0.777,5.647,2.132   C61.509,60.902,61.543,62.649,60.748,64.865z M12.957,39.953c1.619-8.582,5.722-15.479,11.865-19.948   c0.357-0.259,0.858-0.181,1.118,0.176s0.181,0.858-0.176,1.118c-5.808,4.225-9.693,10.777-11.234,18.951   c-0.072,0.384-0.408,0.652-0.785,0.652c-0.049,0-0.099-0.005-0.149-0.014C13.16,40.805,12.875,40.387,12.957,39.953z    M33.734,16.473c-0.119-0.425,0.129-0.867,0.555-0.986c3.242-0.908,6.81-1.368,10.606-1.368c0.442,0,0.8,0.358,0.8,0.8   s-0.358,0.8-0.8,0.8c-3.65,0-7.074,0.441-10.175,1.31c-0.072,0.02-0.145,0.03-0.216,0.03   C34.154,17.058,33.833,16.827,33.734,16.473z M88.823,69.942c0.336,0.286,0.377,0.791,0.092,1.128   c-1.389,1.634-2.888,3.182-4.458,4.601c-0.153,0.139-0.345,0.207-0.536,0.207c-0.219,0-0.436-0.089-0.594-0.263   c-0.296-0.328-0.271-0.834,0.057-1.13c1.518-1.373,2.969-2.87,4.312-4.45C87.983,69.697,88.487,69.658,88.823,69.942z    M81.217,77.347c0.264,0.354,0.191,0.855-0.163,1.119c-4.457,3.324-9.448,5.808-14.837,7.384c-0.075,0.021-0.15,0.032-0.225,0.032   c-0.346,0-0.665-0.227-0.768-0.576c-0.124-0.424,0.12-0.869,0.543-0.993c5.205-1.522,10.026-3.921,14.33-7.13   C80.452,76.92,80.952,76.992,81.217,77.347z M37.15,83.83c0.15,0.15,0.24,0.35,0.24,0.56c0,0.22-0.08,0.42-0.24,0.57   c-0.15,0.15-0.35,0.23-0.56,0.23s-0.41-0.08-0.57-0.23c-0.15-0.15-0.23-0.35-0.23-0.57c0-0.21,0.08-0.41,0.23-0.56   C36.32,83.53,36.86,83.53,37.15,83.83z M33.042,82.971c-0.14,0.282-0.423,0.446-0.718,0.446c-0.119,0-0.24-0.027-0.354-0.083   c-3.551-1.755-6.722-4.055-9.424-6.835c-0.308-0.317-0.301-0.823,0.016-1.131c0.316-0.307,0.823-0.3,1.131,0.016   c2.575,2.649,5.598,4.842,8.985,6.516C33.075,82.095,33.238,82.575,33.042,82.971z M70.85,26.82   c-0.244-0.369-0.142-0.865,0.227-1.108s0.865-0.142,1.108,0.227c1.14,1.726,2.136,3.522,2.96,5.34   c1.401,3.094,2.245,6.471,2.58,10.322c0.067,0.763,0.122,1.529,0.177,2.297c0.031,0.441-0.298,0.856-0.739,0.888   c-0.021,0.001-0.042,0.002-0.063,0.002c-0.413,0-0.759-0.291-0.789-0.71l-0.005-0.065c-0.054-0.759-0.108-1.518-0.175-2.272   c-0.319-3.669-1.119-6.875-2.443-9.802C72.898,30.197,71.944,28.475,70.85,26.82z M77.405,48.369   c0.44-0.028,0.819,0.313,0.844,0.754c0.067,1.194,0.307,2.122,0.778,3.007c0.208,0.39,0.06,0.875-0.33,1.082   c-0.12,0.064-0.249,0.094-0.375,0.094c-0.286,0-0.563-0.154-0.707-0.424c-0.585-1.101-0.883-2.232-0.963-3.669   C76.626,48.771,76.964,48.394,77.405,48.369z M45.668,36.953l-8.671,4.593c-0.128,0.068-0.269,0.102-0.41,0.102   c-0.156,0-0.312-0.042-0.45-0.125l-7.652-4.593c-0.415-0.249-0.549-0.786-0.3-1.2c0.248-0.415,0.786-0.55,1.2-0.3l7.229,4.339   l8.234-4.362c0.43-0.226,0.958-0.062,1.183,0.364C46.258,36.197,46.095,36.726,45.668,36.953z"/></g><text x="0" y="115" fill="#000000" font-size="5px" font-weight="bold" font-family="'Helvetica Neue', Helvetica, Arial-Unicode, Arial, Sans-serif">Created by Imogen Oh</text><text x="0" y="120" fill="#000000" font-size="5px" font-weight="bold" font-family="'Helvetica Neue', Helvetica, Arial-Unicode, Arial, Sans-serif">from the Noun Project</text></svg>