<svg xmlns="http://www.w3.org/2000/svg" xmlns:xlink="http://www.w3.org/1999/xlink" version="1.1" x="0px" y="0px" viewBox="0 0 100 125" enable-background="new 0 0 100 100" xml:space="preserve"><g><path fill="#000000" d="M69.234,60.861c0-0.309,0.251-0.56,0.56-0.56h3.941c0.309,0,0.56,0.251,0.56,0.56s-0.251,0.56-0.56,0.56   h-3.941C69.485,61.421,69.234,61.17,69.234,60.861z M70.629,70.927h-7.261c-0.309,0-0.56,0.251-0.56,0.56s0.251,0.56,0.56,0.56   h7.261c0.309,0,0.56-0.251,0.56-0.56S70.938,70.927,70.629,70.927z M34.551,48.306h-7.252c-0.309,0-0.56,0.251-0.56,0.56   s0.251,0.56,0.56,0.56h7.252c0.309,0,0.56-0.251,0.56-0.56S34.86,48.306,34.551,48.306z M16.82,68.72   c-0.22,0.22-0.35,0.53-0.35,0.84c0,0.31,0.13,0.62,0.35,0.84c0.22,0.22,0.52,0.35,0.84,0.35c0.31,0,0.62-0.13,0.84-0.35   c0.22-0.22,0.35-0.53,0.35-0.84c0-0.31-0.13-0.62-0.35-0.84C18.05,68.27,17.26,68.27,16.82,68.72z M17.66,34.73   c0.31,0,0.62-0.13,0.84-0.35c0.22-0.22,0.35-0.53,0.35-0.84c0-0.31-0.13-0.62-0.35-0.84c-0.44-0.44-1.24-0.45-1.68,0   c-0.22,0.22-0.35,0.53-0.35,0.84c0,0.31,0.13,0.62,0.35,0.84C17.04,34.6,17.34,34.73,17.66,34.73z M16.82,58.76   c-0.23,0.22-0.35,0.53-0.35,0.84c0,0.31,0.12,0.62,0.35,0.84c0.22,0.22,0.52,0.35,0.84,0.35c0.31,0,0.62-0.13,0.84-0.35   c0.22-0.22,0.35-0.53,0.35-0.84c0-0.31-0.13-0.62-0.35-0.84C18.06,58.31,17.25,58.32,16.82,58.76z M17.66,50.83   c0.31,0,0.62-0.13,0.84-0.35c0.22-0.23,0.35-0.53,0.35-0.84s-0.13-0.62-0.35-0.85c-0.45-0.44-1.24-0.44-1.68,0.01   c-0.23,0.22-0.35,0.53-0.35,0.84s0.12,0.61,0.35,0.84C17.04,50.7,17.35,50.83,17.66,50.83z M81.29,68.72   c-0.22,0.22-0.35,0.53-0.35,0.84c0,0.31,0.13,0.62,0.35,0.84c0.22,0.22,0.53,0.35,0.84,0.35c0.32,0,0.62-0.13,0.85-0.35   c0.22-0.22,0.34-0.53,0.34-0.84c0-0.31-0.12-0.62-0.35-0.84C82.53,68.27,81.74,68.27,81.29,68.72z M82.13,34.73   c0.32,0,0.62-0.13,0.84-0.35c0.23-0.22,0.35-0.53,0.35-0.84c0-0.31-0.12-0.62-0.35-0.84c-0.43-0.44-1.23-0.45-1.68,0   c-0.22,0.22-0.35,0.53-0.35,0.84c0,0.31,0.13,0.62,0.35,0.84C81.51,34.6,81.82,34.73,82.13,34.73z M81.29,58.76   c-0.22,0.22-0.35,0.52-0.35,0.84c0,0.31,0.13,0.62,0.35,0.84c0.22,0.22,0.53,0.35,0.84,0.35s0.62-0.13,0.85-0.35   c0.22-0.22,0.34-0.53,0.34-0.84c0-0.31-0.12-0.62-0.34-0.84C82.53,58.31,81.73,58.32,81.29,58.76z M81.29,48.8   c-0.22,0.22-0.35,0.52-0.35,0.84c0,0.31,0.13,0.62,0.35,0.84c0.22,0.22,0.53,0.35,0.84,0.35s0.62-0.13,0.85-0.35   c0.22-0.22,0.34-0.53,0.34-0.84s-0.12-0.62-0.35-0.85C82.53,48.35,81.73,48.35,81.29,48.8z M53.113,44.122   c0,1.122-0.595,2.138-1.545,2.692l0.349,3.036c0.019,0.159-0.032,0.317-0.138,0.437s-0.258,0.188-0.418,0.188h-2.978   c-0.167,0-0.324-0.074-0.431-0.202s-0.15-0.296-0.12-0.46l0.558-3.012c-0.936-0.559-1.52-1.566-1.52-2.678   c0-1.721,1.4-3.122,3.122-3.122S53.113,42.4,53.113,44.122z M51.993,44.122c0-1.104-0.898-2.001-2.001-2.001   s-2.001,0.898-2.001,2.001c0,0.812,0.487,1.538,1.241,1.85c0.244,0.101,0.384,0.359,0.336,0.62l-0.512,2.762h1.677l-0.322-2.801   c-0.029-0.249,0.111-0.486,0.342-0.582C51.506,45.66,51.993,44.934,51.993,44.122z M55.398,71.956H40.746   c-0.309,0-0.56,0.251-0.56,0.56s0.251,0.56,0.56,0.56h14.653c0.309,0,0.56-0.251,0.56-0.56S55.708,71.956,55.398,71.956z    M34.319,60.301h-3.395c-0.309,0-0.56,0.251-0.56,0.56s0.251,0.56,0.56,0.56h3.395c0.309,0,0.56-0.251,0.56-0.56   S34.628,60.301,34.319,60.301z M57.329,60.861c0-0.309-0.251-0.56-0.56-0.56H36.997c-0.309,0-0.56,0.251-0.56,0.56   s0.251,0.56,0.56,0.56h19.772C57.078,61.421,57.329,61.17,57.329,60.861z M71.765,34.519h-8.001c-0.309,0-0.56,0.251-0.56,0.56   s0.251,0.56,0.56,0.56h8.001c0.309,0,0.56-0.251,0.56-0.56S72.074,34.519,71.765,34.519z M47.965,30.146h2.057   c0.309,0,0.56-0.251,0.56-0.56s-0.251-0.56-0.56-0.56h-2.057c-0.309,0-0.56,0.251-0.56,0.56S47.656,30.146,47.965,30.146z    M53.364,30.146h20.8c0.309,0,0.56-0.251,0.56-0.56s-0.251-0.56-0.56-0.56h-20.8c-0.309,0-0.56,0.251-0.56,0.56   S53.055,30.146,53.364,30.146z M37.4,49.43c0.16,0,0.3-0.06,0.4-0.17c0.11-0.1,0.16-0.24,0.16-0.39c0-0.15-0.06-0.29-0.16-0.4   c-0.21-0.21-0.6-0.2-0.79,0c-0.11,0.1-0.17,0.25-0.17,0.4c0,0.14,0.06,0.29,0.17,0.39C37.11,49.37,37.25,49.43,37.4,49.43z    M48.75,65.95c-0.11,0.11-0.17,0.25-0.17,0.4c0,0.14,0.06,0.28,0.17,0.39c0.1,0.11,0.24,0.16,0.39,0.16c0.15,0,0.29-0.05,0.4-0.16   c0.1-0.1,0.16-0.24,0.16-0.39c0-0.16-0.06-0.3-0.16-0.4C49.33,65.74,48.96,65.74,48.75,65.95z M51.209,66.346   c0,0.309,0.251,0.56,0.56,0.56h21.966c0.309,0,0.56-0.251,0.56-0.56s-0.251-0.56-0.56-0.56H51.77   C51.46,65.786,51.209,66.037,51.209,66.346z M41.32,27.06c0.15,0,0.29-0.06,0.39-0.16c0.11-0.11,0.17-0.25,0.17-0.4   c0-0.15-0.07-0.29-0.17-0.39c-0.2-0.21-0.59-0.21-0.79-0.01c-0.1,0.11-0.16,0.25-0.16,0.4c0,0.15,0.05,0.29,0.16,0.39   C41.02,27,41.16,27.06,41.32,27.06z M39.25,26.5c0-0.309-0.251-0.56-0.56-0.56H25.837c-0.309,0-0.56,0.251-0.56,0.56   s0.251,0.56,0.56,0.56h12.853C38.999,27.061,39.25,26.81,39.25,26.5z M87.735,30.304V42.1v36.168c0,0.607-0.493,1.1-1.1,1.1H13.366   c-0.607,0-1.1-0.493-1.1-1.1V42.1V30.304c0-5.817,8.519-9.048,8.882-9.183c0.123-0.045,0.252-0.069,0.383-0.069h56.731   c0.128,0,0.254,0.022,0.375,0.066C79.007,21.252,87.735,24.48,87.735,30.304z M14.466,30.304v10.92H41.47v-4.118   c0-0.483,0.392-0.875,0.875-0.875h15.072c0.483,0,0.875,0.392,0.875,0.875v4.118h27.243v-10.92c0-3.077-4.104-5.565-6.599-6.687   v15.621c0,0.373-0.302,0.675-0.675,0.675s-0.675-0.302-0.675-0.675V23.252H22.205v11.266h10.058c0.309,0,0.56,0.251,0.56,0.56   s-0.251,0.56-0.56,0.56H22.205v3.6c0,0.373-0.302,0.675-0.675,0.675s-0.675-0.302-0.675-0.675V23.632   C18.423,24.765,14.466,27.248,14.466,30.304z M77.586,42.975H58.292v6.537c-0.002,0.088-0.264,6.629-8.411,6.629   c-8.147,0-8.409-6.541-8.41-6.607l0-6.559H22.205v25.453h4.98c0.309,0,0.56,0.251,0.56,0.56s-0.251,0.56-0.56,0.56h-4.98v7.62   h55.381V52.34H67.395c-0.309,0-0.56-0.251-0.56-0.56s0.251-0.56,0.56-0.56h10.192V42.975z M56.542,42.1   C56.542,42.099,56.542,42.099,56.542,42.1v-4.118H43.22v11.53c0.007,0.173,0.253,4.879,6.661,4.879   c6.461,0,6.656-4.702,6.662-4.902L56.542,42.1C56.542,42.1,56.542,42.1,56.542,42.1z M14.466,77.167h6.39V42.975h-6.39V77.167z    M85.535,77.167V42.975h-6.599v34.193H85.535z"/></g><text x="0" y="115" fill="#000000" font-size="5px" font-weight="bold" font-family="'Helvetica Neue', Helvetica, Arial-Unicode, Arial, Sans-serif">Created by Imogen Oh</text><text x="0" y="120" fill="#000000" font-size="5px" font-weight="bold" font-family="'Helvetica Neue', Helvetica, Arial-Unicode, Arial, Sans-serif">from the Noun Project</text></svg>