<svg xmlns="http://www.w3.org/2000/svg" xmlns:xlink="http://www.w3.org/1999/xlink" version="1.1" x="0px" y="0px" viewBox="0 0 100 125" enable-background="new 0 0 100 100" xml:space="preserve"><g><path fill="#000000" d="M59.899,24.62c-0.229-0.23-0.35-0.53-0.35-0.85c0-0.31,0.12-0.62,0.35-0.84c0.44-0.44,1.24-0.44,1.681,0   c0.22,0.22,0.35,0.53,0.35,0.84c0,0.32-0.13,0.62-0.35,0.84c-0.221,0.23-0.53,0.35-0.84,0.35C60.43,24.96,60.12,24.84,59.899,24.62   z M56.71,76.29c-0.16,0.17-0.26,0.39-0.26,0.62s0.1,0.46,0.26,0.62s0.39,0.25,0.62,0.25c0.229,0,0.46-0.09,0.609-0.25   c0.17-0.16,0.261-0.39,0.261-0.62s-0.091-0.46-0.261-0.62C57.62,75.97,57.04,75.96,56.71,76.29z M69.74,67.97   c-0.16,0.16-0.261,0.39-0.261,0.62c0,0.22,0.101,0.45,0.261,0.61c0.159,0.17,0.39,0.26,0.619,0.26c0.23,0,0.45-0.09,0.62-0.26   c0.16-0.16,0.25-0.39,0.25-0.61c0-0.24-0.09-0.46-0.25-0.62C70.649,67.64,70.06,67.64,69.74,67.97z M52.49,69.05   c-0.171,0.16-0.261,0.39-0.261,0.62c0,0.22,0.09,0.45,0.261,0.62c0.159,0.16,0.39,0.25,0.619,0.25c0.221,0,0.45-0.09,0.62-0.26   c0.16-0.16,0.25-0.39,0.25-0.61c0-0.23-0.09-0.46-0.26-0.63C53.399,68.72,52.819,68.72,52.49,69.05z M62.08,70.2   c-0.16,0.17-0.261,0.39-0.261,0.62s0.101,0.46,0.261,0.62c0.16,0.16,0.39,0.26,0.62,0.26c0.229,0,0.449-0.1,0.619-0.26   c0.16-0.16,0.25-0.39,0.25-0.62c0-0.22-0.09-0.45-0.25-0.62C62.99,69.88,62.399,69.88,62.08,70.2z M46.26,73.51   C46.09,73.67,46,73.9,46,74.13s0.09,0.46,0.25,0.62c0.16,0.16,0.39,0.26,0.62,0.26c0.239,0,0.46-0.1,0.62-0.26   c0.159-0.16,0.26-0.39,0.26-0.62s-0.101-0.46-0.26-0.62C47.17,73.19,46.569,73.19,46.26,73.51z M42.109,67.97   c-0.159,0.16-0.26,0.38-0.26,0.61c0,0.23,0.101,0.46,0.26,0.62c0.16,0.17,0.391,0.26,0.62,0.26c0.23,0,0.45-0.09,0.62-0.26   c0.16-0.16,0.25-0.39,0.25-0.62c0-0.23-0.09-0.45-0.25-0.61C43.03,67.64,42.43,67.64,42.109,67.97z M43.011,48.528   c1.491,0,2.704,1.212,2.704,2.703s-1.213,2.703-2.704,2.703c-1.49,0-2.703-1.212-2.703-2.703S41.521,48.528,43.011,48.528z    M43.011,49.877c-0.746,0-1.354,0.607-1.354,1.354s0.607,1.354,1.354,1.354c0.747,0,1.354-0.607,1.354-1.354   S43.758,49.877,43.011,49.877z M49.389,44.114c0-1.145,0.931-2.076,2.075-2.076c1.144,0,2.073,0.931,2.073,2.076   c0,1.143-0.93,2.073-2.073,2.073C50.319,46.187,49.389,45.257,49.389,44.114z M50.488,44.114c0,0.537,0.438,0.973,0.976,0.973   c0.537,0,0.974-0.437,0.974-0.973c0-0.539-0.437-0.977-0.974-0.977C50.926,43.138,50.488,43.576,50.488,44.114z M64.741,49.539   c0-1.738,1.414-3.152,3.152-3.152s3.152,1.414,3.152,3.152c0,1.739-1.414,3.153-3.152,3.153S64.741,51.278,64.741,49.539z    M66.091,49.539c0,0.994,0.809,1.803,1.803,1.803s1.803-0.809,1.803-1.803s-0.809-1.803-1.803-1.803S66.091,48.545,66.091,49.539z    M75.047,61.649c-3.075,0.756-8.894,1.657-19.147,1.657c-10.205,0-16.008-0.892-19.079-1.641c-0.335-0.077-0.673,0.124-0.755,0.459   c-0.082,0.335,0.124,0.673,0.459,0.755c3.137,0.765,9.045,1.676,19.375,1.676c10.38,0,16.304-0.92,19.446-1.693   c0.335-0.083,0.54-0.421,0.458-0.756C75.721,61.771,75.382,61.567,75.047,61.649z M78.994,62.052   c0,12.733-10.36,23.093-23.094,23.093S32.808,74.786,32.808,62.052c0-0.9,0.053-1.517,0.053-1.517   c0.078-0.913,0.745-1.928,1.552-2.361c0.15-0.08,3.818-1.949,18.974-2.137c-0.015-0.143-0.043-0.282-0.043-0.43   c0-2.239,1.821-4.061,4.061-4.061c2.238,0,4.06,1.822,4.06,4.061c0,0.169-0.029,0.33-0.05,0.493   c12.424,0.368,15.646,1.897,15.975,2.073c0.806,0.431,1.473,1.446,1.552,2.359C78.94,60.536,78.994,61.152,78.994,62.052z    M54.793,55.608c0,1.439,1.172,2.61,2.611,2.61s2.61-1.171,2.61-2.61s-1.171-2.61-2.61-2.61S54.793,54.169,54.793,55.608z    M77.094,62.052c0-0.792-0.045-1.337-0.046-1.356c-0.024-0.279-0.311-0.715-0.557-0.847c-0.019-0.009-3.236-1.545-15.72-1.868   c-0.026,0-0.048-0.014-0.074-0.017c-0.737,1.028-1.935,1.705-3.293,1.705c-1.394,0-2.625-0.707-3.356-1.78   c-0.067,0.016-0.131,0.042-0.203,0.043c-14.818,0.148-18.512,1.906-18.547,1.924c-0.234,0.125-0.52,0.561-0.543,0.84   c-0.002,0.018-0.046,0.564-0.046,1.355c0,11.686,9.507,21.192,21.192,21.192C67.587,83.245,77.094,73.738,77.094,62.052z    M47.142,30.78c-0.187-0.323-0.6-0.436-0.923-0.247l-12.417,7.169c-0.323,0.187-0.434,0.599-0.247,0.922   c0.125,0.217,0.352,0.338,0.585,0.338c0.115,0,0.231-0.029,0.337-0.091l12.417-7.169C47.217,31.516,47.327,31.103,47.142,30.78z    M70.428,87.074c-4.504,2.6-9.429,3.835-14.29,3.835c-9.919,0-19.577-5.143-24.882-14.332c-5.649-9.783-5.039-21.878,1.507-31.029   c-0.715-1.342-2.522-4.474-4.44-5.775c-1.07-0.726-1.293-1.561-1.292-2.132c0.004-1.316,1.16-2.158,1.392-2.314l1.292-0.746   l-4.07-5.237c-0.301-0.388-0.333-0.921-0.081-1.342c0.164-0.274,1.764-2.769,7.312-5.971c5.547-3.202,8.506-3.34,8.825-3.346   c0.481,0.003,0.936,0.286,1.122,0.741l2.501,6.14l1.021-0.59c0.321-0.161,1.634-0.741,2.773-0.086   c0.496,0.285,1.106,0.895,1.199,2.185c0.152,2.104,1.747,5.07,2.722,6.644c11.286-1.202,22.192,4.325,27.884,14.182   C88.828,61.596,84.12,79.168,70.428,87.074z M31.796,33.38l11.447-6.611l-2.274-5.585c-1.121,0.232-3.449,0.915-6.903,2.909   c-3.45,1.992-5.206,3.666-5.971,4.524L31.796,33.38z M78.863,49.091C73.607,39.99,63.513,34.914,53.08,36.11   c-0.533,0.299-1.215,0.146-1.565-0.368c-0.135-0.198-3.309-4.887-3.569-8.495c-0.011-0.14-0.03-0.229-0.047-0.282   c-0.131,0.006-0.347,0.068-0.434,0.111L29.681,37.347c-0.057,0.044-0.183,0.179-0.244,0.276c0.038,0.041,0.104,0.103,0.221,0.182   c2.993,2.03,5.467,7.124,5.571,7.34c0.193,0.402,0.146,0.877-0.123,1.233c-6.383,8.453-7.086,19.84-1.79,29.01   c7.249,12.557,23.362,16.874,35.921,9.625C81.794,77.764,86.111,61.649,78.863,49.091z M73.24,27.513h1.056v1.056   c0,0.497,0.403,0.9,0.9,0.9s0.9-0.403,0.9-0.9v-1.056h1.055c0.497,0,0.9-0.403,0.9-0.9s-0.403-0.9-0.9-0.9h-1.055v-1.056   c0-0.497-0.403-0.9-0.9-0.9s-0.9,0.403-0.9,0.9v1.056H73.24c-0.497,0-0.9,0.403-0.9,0.9S72.743,27.513,73.24,27.513z    M20.835,46.527h-1.056V45.47c0-0.497-0.403-0.9-0.9-0.9s-0.9,0.403-0.9,0.9v1.057h-1.056c-0.497,0-0.9,0.403-0.9,0.9   s0.403,0.9,0.9,0.9h1.056v1.055c0,0.497,0.403,0.9,0.9,0.9s0.9-0.403,0.9-0.9v-1.055h1.056c0.497,0,0.9-0.403,0.9-0.9   S21.332,46.527,20.835,46.527z M16.4,63.09c-0.22,0.22-0.35,0.53-0.35,0.84c0,0.32,0.13,0.62,0.35,0.84   c0.22,0.22,0.53,0.35,0.84,0.35c0.32,0,0.62-0.13,0.84-0.35c0.22-0.22,0.35-0.53,0.35-0.84s-0.13-0.62-0.35-0.84   C17.64,62.65,16.84,62.65,16.4,63.09z M17.26,34.06c0.22-0.22,0.35-0.53,0.35-0.84s-0.13-0.62-0.35-0.84   c-0.44-0.44-1.23-0.45-1.68,0c-0.22,0.22-0.35,0.53-0.35,0.84s0.13,0.62,0.35,0.84c0.22,0.22,0.53,0.35,0.84,0.35   S17.04,34.28,17.26,34.06z M46.66,11.46c0.319,0,0.62-0.13,0.84-0.35c0.22-0.22,0.35-0.53,0.35-0.84c0-0.31-0.13-0.62-0.35-0.84   c-0.44-0.44-1.24-0.44-1.681,0c-0.22,0.22-0.35,0.53-0.35,0.84c0,0.31,0.13,0.62,0.35,0.84C46.04,11.33,46.35,11.46,46.66,11.46z"/></g><text x="0" y="115" fill="#000000" font-size="5px" font-weight="bold" font-family="'Helvetica Neue', Helvetica, Arial-Unicode, Arial, Sans-serif">Created by Imogen Oh</text><text x="0" y="120" fill="#000000" font-size="5px" font-weight="bold" font-family="'Helvetica Neue', Helvetica, Arial-Unicode, Arial, Sans-serif">from the Noun Project</text></svg>