<svg xmlns="http://www.w3.org/2000/svg" xmlns:xlink="http://www.w3.org/1999/xlink" version="1.1" x="0px" y="0px" viewBox="0 0 100 125" enable-background="new 0 0 100 100" xml:space="preserve"><g><path fill="#000000" d="M51.11,37.856h-2.219c-1.677,0-3.042,1.364-3.042,3.042v18.205c0,1.677,1.364,3.042,3.042,3.042h2.219   c1.677,0,3.042-1.364,3.042-3.042V40.898C54.151,39.221,52.787,37.856,51.11,37.856z M52.352,59.103   c0,0.685-0.557,1.242-1.242,1.242h-2.219c-0.685,0-1.242-0.557-1.242-1.242V40.898c0-0.685,0.557-1.242,1.242-1.242h2.219   c0.685,0,1.242,0.557,1.242,1.242V59.103z M69.869,48.076c-0.995-10.283-9.527-18.038-19.847-18.038   c-0.645,0-1.299,0.031-1.945,0.094c-10.955,1.062-19.004,10.837-17.944,21.792c0.996,10.284,9.527,18.04,19.845,18.04   c0.646,0,1.301-0.032,1.947-0.094C62.878,68.809,70.928,59.033,69.869,48.076z M51.751,68.078   c-0.589,0.057-1.185,0.086-1.773,0.086c-9.386,0-17.147-7.056-18.053-16.414c-0.965-9.966,6.359-18.86,16.326-19.826   c0.588-0.057,1.184-0.086,1.771-0.086c9.388,0,17.15,7.055,18.055,16.411C69.041,58.218,61.717,67.113,51.751,68.078z    M43.439,36.02c0.18,0.327,0.062,0.737-0.264,0.917c-3.116,1.722-5.543,4.5-6.834,7.822c-0.104,0.267-0.359,0.431-0.629,0.431   c-0.082,0-0.164-0.015-0.245-0.046c-0.347-0.135-0.52-0.526-0.384-0.874c1.405-3.616,4.047-6.64,7.439-8.514   C42.848,35.575,43.258,35.694,43.439,36.02z M35.42,46.6c0.12,0.12,0.2,0.3,0.2,0.47c0,0.18-0.07,0.35-0.2,0.48s-0.3,0.2-0.48,0.2   c-0.18,0-0.35-0.07-0.48-0.2c-0.12-0.12-0.19-0.29-0.19-0.48c0-0.17,0.07-0.35,0.2-0.47C34.71,46.35,35.16,46.34,35.42,46.6z    M50,22.628c-15.094,0-27.373,12.279-27.373,27.372c0,15.094,12.279,27.374,27.373,27.374S77.374,65.094,77.374,50   C77.374,34.907,65.094,22.628,50,22.628z M50,74.994c-13.781,0-24.993-11.212-24.993-24.994c0-13.781,11.212-24.992,24.993-24.992   c13.782,0,24.994,11.211,24.994,24.992C74.994,63.782,63.782,74.994,50,74.994z"/></g><text x="0" y="115" fill="#000000" font-size="5px" font-weight="bold" font-family="'Helvetica Neue', Helvetica, Arial-Unicode, Arial, Sans-serif">Created by Imogen Oh</text><text x="0" y="120" fill="#000000" font-size="5px" font-weight="bold" font-family="'Helvetica Neue', Helvetica, Arial-Unicode, Arial, Sans-serif">from the Noun Project</text></svg>