<svg xmlns="http://www.w3.org/2000/svg" xmlns:xlink="http://www.w3.org/1999/xlink" version="1.1" x="0px" y="0px" viewBox="0 0 100 125" enable-background="new 0 0 100 100" xml:space="preserve"><g><path fill="#000000" d="M59.061,76.803c0,0.373-0.302,0.675-0.675,0.675H9.453c-0.373,0-0.675-0.302-0.675-0.675   s0.302-0.675,0.675-0.675h48.934C58.759,76.128,59.061,76.431,59.061,76.803z M48.762,59.134h-6.685   c-0.373,0-0.675,0.302-0.675,0.675s0.302,0.675,0.675,0.675h6.685c0.373,0,0.675-0.302,0.675-0.675S49.135,59.134,48.762,59.134z    M28.96,23.86c0-0.373-0.302-0.675-0.675-0.675s-0.675,0.302-0.675,0.675c0,2.16-1.757,3.917-3.916,3.917   c-0.373,0-0.675,0.302-0.675,0.675s0.302,0.675,0.675,0.675C26.599,29.126,28.96,26.764,28.96,23.86z M63.47,67.039v9.09   c0,1.841-1.895,6.043-2.275,6.867c-0.764,1.802-2.17,2.812-3.946,2.812h-46.66c-1.66,0-3.252-1.146-3.962-2.85   c-0.363-0.786-2.255-4.988-2.255-6.829v-9.09c0-1.861,1.513-3.375,3.374-3.375h6.847l1.045-7.284   c0.078-0.542,0.542-0.944,1.089-0.944h3.251V32.94c-3.534-1.464-6.027-4.947-6.027-9.003c0-5.373,4.372-9.744,9.745-9.744   c5.372,0,9.743,4.371,9.743,9.744c0,4.056-2.493,7.539-6.026,9.003v22.497h3.252c0.547,0,1.011,0.402,1.089,0.944l1.043,7.284h4.62   V59.75c0-2.378,1.935-4.313,4.314-4.313h7.32c2.378,0,4.313,1.935,4.313,4.313v3.915h6.73C61.955,63.664,63.47,65.178,63.47,67.039   z M39.616,63.664h11.547V59.75c0-1.165-0.948-2.113-2.113-2.113h-7.32c-1.166,0-2.114,0.948-2.114,2.113V63.664z M23.695,31.48   c4.159,0,7.542-3.384,7.542-7.543s-3.383-7.544-7.542-7.544c-4.16,0-7.544,3.384-7.544,7.544S19.535,31.48,23.695,31.48z    M21.977,55.437h3.435V33.52c-0.559,0.1-1.13,0.161-1.717,0.161c-0.587,0-1.159-0.061-1.718-0.161V55.437z M16.814,63.664h13.759   l-0.864-6.027H17.68L16.814,63.664z M61.27,67.039c0-0.647-0.528-1.174-1.176-1.174H7.745c-0.647,0-1.173,0.527-1.173,1.174v9.09   c0,1.001,1.21,4.08,2.07,5.946c0.383,0.918,1.177,1.533,1.947,1.533h46.66c0.873,0,1.506-0.491,1.935-1.502   c0.875-1.897,2.086-4.977,2.086-5.977V67.039z M94.531,73.56h-4.59c-1.221,0-2.214-0.993-2.214-2.213v-3.715   c0-2.323-1.86-4.213-4.147-4.213s-4.147,1.89-4.147,4.213V81.49c0,1.22-0.93,2.213-2.072,2.213c-1.142,0-2.071-0.993-2.071-2.213   v-3.991c0-2.323-1.89-4.213-4.213-4.213h-4.467c-0.552,0-1,0.448-1,1s0.448,1,1,1h4.467c1.22,0,2.213,0.993,2.213,2.213v3.991   c0,2.323,1.826,4.213,4.071,4.213c2.246,0,4.072-1.89,4.072-4.213V67.632c0-1.22,0.963-2.213,2.147-2.213s2.147,0.993,2.147,2.213   v3.715c0,2.323,1.89,4.213,4.214,4.213h4.59c0.552,0,1-0.448,1-1S95.083,73.56,94.531,73.56z"/></g><text x="0" y="115" fill="#000000" font-size="5px" font-weight="bold" font-family="'Helvetica Neue', Helvetica, Arial-Unicode, Arial, Sans-serif">Created by Imogen Oh</text><text x="0" y="120" fill="#000000" font-size="5px" font-weight="bold" font-family="'Helvetica Neue', Helvetica, Arial-Unicode, Arial, Sans-serif">from the Noun Project</text></svg>