<svg xmlns="http://www.w3.org/2000/svg" xmlns:xlink="http://www.w3.org/1999/xlink" version="1.1" x="0px" y="0px" viewBox="0 0 100 125" enable-background="new 0 0 100 100" xml:space="preserve"><g><path fill="#000000" d="M46.85,13.044c-0.06-0.41,0.225-0.791,0.635-0.85c0.466-0.067,0.938-0.117,1.417-0.144   c0.42-0.028,0.768,0.292,0.792,0.706c0.024,0.413-0.292,0.768-0.706,0.792c-0.435,0.025-0.864,0.07-1.288,0.131   c-0.037,0.005-0.073,0.008-0.108,0.008C47.224,13.687,46.904,13.417,46.85,13.044z M45.556,14.138   c0.398-0.115,0.628-0.53,0.513-0.928c-0.115-0.398-0.531-0.629-0.928-0.513c-5.256,1.513-9.586,5.486-11.582,10.628   c-0.15,0.386,0.042,0.821,0.428,0.971c0.089,0.035,0.181,0.051,0.271,0.051c0.3,0,0.584-0.182,0.699-0.479   C36.785,19.159,40.747,15.521,45.556,14.138z M51.565,59.228c1.006,1.313,2.343,3.285,2.343,4.494c0,0.497-0.403,0.9-0.9,0.9   h-5.447c-1.107,2.294-2.808,3.138-4.328,3.871c-1.542,0.744-2.874,1.386-3.703,3.48c-0.83,2.098-0.299,3.478,0.316,5.077   c0.656,1.704,1.399,3.635,0.31,6.385c-1.089,2.75-2.953,3.649-4.597,4.442c-1.542,0.745-2.875,1.388-3.704,3.484   c-0.14,0.354-0.479,0.569-0.837,0.569c-0.11,0-0.222-0.021-0.331-0.063c-0.462-0.183-0.688-0.706-0.506-1.168   c1.088-2.75,2.952-3.649,4.596-4.443c1.543-0.744,2.875-1.387,3.705-3.484c0.83-2.096,0.299-3.477-0.316-5.075   c-0.656-1.704-1.399-3.635-0.31-6.385c1.088-2.748,2.951-3.646,4.594-4.439c1.518-0.732,2.829-1.373,3.659-3.389   c0.152-1.218,1.381-3.023,2.325-4.254c-4.492-2.105-20.429-10.882-20.429-29.366c0-12.126,9.867-21.992,21.995-21.992   c12.127,0,21.994,9.866,21.994,21.992C71.995,48.347,56.057,57.123,51.565,59.228z M51.784,62.822   c-0.383-0.735-1.059-1.734-1.784-2.672c-0.725,0.938-1.402,1.938-1.785,2.672H51.784z M69.794,29.861   c0-10.913-8.879-19.792-19.793-19.792c-10.915,0-19.794,8.878-19.794,19.792c0,18.315,16.978,26.442,19.794,27.663   C52.818,56.303,69.794,48.176,69.794,29.861z M62.698,30.703c0.449,7.346-6.091,13.985-12.48,15.577   c-0.072,0.018-0.145,0.026-0.218,0.026s-0.146-0.009-0.218-0.026c-6.391-1.593-12.93-8.232-12.478-15.577   c0.271-4.409,2.967-7.147,7.037-7.147c2.336,0,4.518,1.222,5.685,2.962c1.185-1.77,3.316-2.962,5.631-2.962   C59.729,23.555,62.426,26.294,62.698,30.703z M60.901,30.813c-0.211-3.417-2.171-5.458-5.243-5.458   c-2.365,0-4.459,1.656-4.768,3.77c-0.066,0.454-0.464,0.807-0.919,0.77c-0.457-0.014-0.831-0.369-0.869-0.825   c-0.164-1.979-2.389-3.714-4.761-3.714c-3.071,0-5.03,2.041-5.24,5.458C38.709,37.182,44.381,42.966,50,44.477   C55.618,42.966,61.291,37.182,60.901,30.813z"/></g><text x="0" y="115" fill="#000000" font-size="5px" font-weight="bold" font-family="'Helvetica Neue', Helvetica, Arial-Unicode, Arial, Sans-serif">Created by Imogen Oh</text><text x="0" y="120" fill="#000000" font-size="5px" font-weight="bold" font-family="'Helvetica Neue', Helvetica, Arial-Unicode, Arial, Sans-serif">from the Noun Project</text></svg>