<svg xmlns="http://www.w3.org/2000/svg" xmlns:xlink="http://www.w3.org/1999/xlink" version="1.1" x="0px" y="0px" viewBox="0 0 100 125" style="enable-background:new 0 0 100 100;" xml:space="preserve"><g><path d="M80.5,45.6c0.6-1.4,1.3-3.1,2.4-5.4c2.3-4.9,1.4-6.9,0.3-9.2c-0.2-0.4-0.3-0.7-0.5-1.1c-1-2.4-1.7-3.3-2.4-4.3   c-0.1-0.2-0.3-0.4-0.5-0.6c-0.4-0.6-0.9-2.5-1.3-4.4c-0.4-1.8-0.9-3.7-1.4-5.1c-0.8-2.2-2.6-3-4.2-3.7c-0.9-0.4-1.7-0.8-2.3-1.3   c-1-0.9-2.3-1.5-3.3-1.9c-0.1-0.4-0.2-0.7-0.2-1c-0.1-0.5-0.2-1-0.3-1.3c-0.4-2.5-3.8-2.7-7.3-2.9c-1.6-0.1-3.4-0.2-4.8-0.5   c-0.7-0.2-1.5-0.2-2.3-0.2c-3.6,0-7.3,1.6-8.1,2c-3.5-0.2-9,2.9-12.5,5c-1.3,0.7-2.5,1.4-3,1.6c-2.2,0.8-3.5,5.9-3.8,7.3   c-0.4,0.5-2.1,2.7-4.5,4.4c-1.8,1.3-1.9,3.1-1.9,4.8c0,1.3-0.1,2.3-0.9,3.1c-1.6,1.5-1.1,3.5-0.6,5.4c0.3,1.2,0.7,2.4,0.5,3.7   c-0.2,1.6-0.5,2.6-0.8,3.5c-0.3,1-0.6,1.9-0.7,3.4c0,0.2,0,0.4,0,0.6c-0.6,0.9-1,2.2-0.6,4.3l0,0.1c1.8,7.9,3.7,15,8.1,15   c0,4.4,0.5,10.9,3.6,14.5c1,1.2,2.2,2.8,3.4,4.5c4.4,5.9,8.9,12,13.6,12h4.8h4.8c4.7,0,9.2-6.1,13.6-12c1.3-1.7,2.4-3.3,3.4-4.5   c3.1-3.6,3.6-10.1,3.6-14.5c4.4,0,6.3-7.1,8.1-15l0-0.1c0.5-2.3-0.2-3.8-0.8-4.6C81.8,46.4,81.3,45.9,80.5,45.6z M80.8,50.9   c-0.9,4.1-3,13.4-6,13.4c-0.7,0-1.6-0.6-2.4-2c0,0,1.3,12.3-2.9,17.2C65.4,84.4,59,95.3,54.2,95.3s-4.8,0-4.8,0s0,0-4.8,0   S33.4,84.4,29.2,79.6c-4.2-4.9-2.9-17.2-2.9-17.2c-0.9,1.4-1.7,2-2.4,2c-3,0-5.1-9.3-6-13.4c-0.2-0.7-0.2-1.3-0.1-1.8   c0.4,0.1,0.9,0.2,1.3,0.2c0.5,0,0.9,0.1,1.2,0.2c0.8,0.4,1.4,1,1.6,1.3c-0.1,1.9-0.2,8.4,0.2,9.7c0.4,1.2,1.2,1.9,2.1,1.9   c0.2,0,0.5,0,0.8-0.1c0.4-0.1,0.8-0.5,1.1-1.1c0.7-1.4,1-4,0.4-5.5c-0.5-1.2-1.1-9.1-1.3-13.8l0-2.2l1.6-0.2   c4.6-0.7,9.9-5.1,11.5-6.6c0.7,0.5,1.6,0.6,2.3,0.6c0.5,0,1,0,1.5-0.1c0.5,0,0.9-0.1,1.3-0.1c1.1,0,1.4,0.3,1.5,0.9   c0,0.3,0,0.5-0.1,0.6c-0.1,0.1-0.3,0.3-1.1,0.3c-1.6,0-3.7-0.8-3.7-0.8l-0.6-0.2L39,34.8c0,0.1-0.6,1.4,0.2,2.9   c0.8,1.6,2.8,2.6,5.9,3.1c0.5,0.1,1.1,0.1,1.5,0.1c0,0,0,0,0,0c2.2,0,4-0.9,5.1-2.6c1.6-2.6,1.4-6.4,0.4-8.6   c-0.9-2-2.5-3.1-3.9-4.2c-1.2-0.9-2.2-1.6-2.5-2.6c0.1,0,0.2,0,0.4,0c0.7,0,1.7,0.2,2.9,0.3c2,0.3,4.6,0.7,7.6,0.7   c1.8,0,3.5-0.2,5.2-0.5c0.6-0.1,1.1-0.3,1.6-0.4c1.4,2.5,3.3,3.1,4.8,3.1c1.4,0,2.7-0.5,3.5-0.9c0.4,1.8,0.9,5.5,1,8.5   c0.1,2.7-0.1,5.3-0.3,7.6c-0.1,0.8-0.1,1.6-0.2,2.4c-0.1,1.2,0,2.8,0,4.6c0.1,2.5,0.2,5.3,0,7.9c-0.2,2.3,0.1,3.8,0.8,4.6   c0.4,0.5,1,0.7,1.8,0.7c0.3,0,0.5,0,0.8-0.1c0.2,0,0.6-0.1,0.8-0.5c1.2-1.8-0.4-9.2-0.4-9.3c0,0,0,0,0-0.1c0.2-0.1,0.5-0.1,0.8-0.2   c0.9-0.2,2.3-0.4,2.6-1.9c0.1-0.6,0.3-1.2,0.5-1.9C80.6,48.2,81.2,49.2,80.8,50.9z"/><circle cx="38" cy="55.2" r="2.8"/><circle cx="61.3" cy="55.2" r="2.8"/><rect x="44.3" y="75.5" width="12.3" height="2"/><rect x="48.1" y="80.7" width="4.7" height="1.3"/></g><text x="0" y="115" fill="#000000" font-size="5px" font-weight="bold" font-family="'Helvetica Neue', Helvetica, Arial-Unicode, Arial, Sans-serif">Created by James Fenton</text><text x="0" y="120" fill="#000000" font-size="5px" font-weight="bold" font-family="'Helvetica Neue', Helvetica, Arial-Unicode, Arial, Sans-serif">from the Noun Project</text></svg>