<svg xmlns="http://www.w3.org/2000/svg" xmlns:xlink="http://www.w3.org/1999/xlink" version="1.1" x="0px" y="0px" viewBox="0 0 100 125" enable-background="new 0 0 100 100" xml:space="preserve"><g display="none"><rect x="-987.879" y="-285.155" display="inline" fill="#000000" width="1286.936" height="912.422"/></g><g><path fill="#000000" d="M18.377,77.987h11.861v-3.688H18.377c-1.82,0-3.301-1.551-3.301-3.457V62.29   c3.654-0.861,6.39-4.211,6.39-8.21c0-2.837-1.387-5.463-3.709-7.025l-2.058,3.059c1.302,0.876,2.08,2.359,2.08,3.966   c0,2.616-2.04,4.743-4.549,4.743c-2.505,0-4.542-2.128-4.542-4.743c0-1.607,0.778-3.09,2.08-3.966l-2.058-3.059   C6.387,48.618,5,51.244,5,54.08c0,4,2.736,7.351,6.389,8.211v8.55C11.389,74.781,14.524,77.987,18.377,77.987z"/><path fill="#000000" d="M91.291,47.055l-2.058,3.059c1.302,0.876,2.08,2.359,2.08,3.966c0,2.616-2.037,4.743-4.542,4.743   c-2.508,0-4.549-2.128-4.549-4.743c0-1.607,0.778-3.09,2.08-3.966l-2.058-3.059c-2.323,1.563-3.709,4.189-3.709,7.025   c0,3.998,2.736,7.348,6.39,8.21v8.551c0,1.906-1.481,3.457-3.301,3.457H69.761v3.688h11.861c3.854,0,6.989-3.205,6.989-7.145v-8.55   C92.264,61.431,95,58.08,95,54.08C95,51.244,93.613,48.618,91.291,47.055z"/><path fill="#000000" d="M60.064,22.399l1.447,1.143l0,0l1.447,1.144c4.39-5.554,1.92-11.614,0-14.042l-2.899,2.28   c0.077,0.1,1.022,1.355,1.452,3.172c0.236,0.998,0.306,2.166,0,3.406C61.278,20.44,60.839,21.419,60.064,22.399z"/><path fill="#000000" d="M65.603,25.192l1.492,1.084l0,0l1.492,1.084c5.575-7.669,2.437-16.038,0-19.391l-2.987,2.164   c0.083,0.115,0.845,1.203,1.495,2.903c0.894,2.334,1.574,5.822,0,9.534C66.727,23.435,66.241,24.313,65.603,25.192z"/><path fill="#000000" d="M39.943,12.923l-1.452-1.136l-1.446-1.144c-1.92,2.429-4.392,8.489,0,14.043l2.892-2.287   c-0.775-0.981-1.215-1.959-1.446-2.899c-0.305-1.239-0.236-2.405,0-3.402C38.92,14.28,39.866,13.023,39.943,12.923z"/><path fill="#000000" d="M34.401,10.132l-2.987-2.164c-2.437,3.353-5.575,11.722,0,19.391l1.492-1.084l0,0l1.492-1.084   c-0.639-0.878-1.124-1.756-1.492-2.622c-1.574-3.713-0.894-7.201,0-9.535C33.557,11.336,34.318,10.247,34.401,10.132z"/><path fill="#000000" d="M69.155,67.147V56.821c0.21,0.032,0.421,0.065,0.64,0.065h1.888c2.339,0,4.242-1.902,4.242-4.241V43.34   c0-2.339-1.902-4.241-4.242-4.241h-1.888c-0.219,0-0.43,0.032-0.64,0.065v-8.299H51.332v-6.737   c2.814-0.804,4.882-3.394,4.882-6.463c0-3.709-3.017-6.726-6.726-6.726c-3.709,0-6.727,3.018-6.727,6.726   c0,3.069,2.068,5.659,4.883,6.463v6.737H30.845v8.299c-0.211-0.032-0.422-0.065-0.641-0.065h-1.888   c-2.338,0-4.241,1.902-4.241,4.241v9.304c0,2.339,1.902,4.241,4.241,4.241h1.888c0.22,0,0.43-0.033,0.641-0.065v10.327h17.311   v4.256h-5.328c-6.556,0-11.891,5.335-11.891,11.891v8.736h38.126v-8.736c0-6.557-5.335-11.891-11.892-11.891h-5.327v-4.256H69.155z    M69.243,43.34c0-0.3,0.253-0.553,0.553-0.553h1.888c0.3,0,0.554,0.253,0.554,0.553v9.304c0,0.3-0.254,0.553-0.554,0.553h-1.888   c-0.3,0-0.553-0.253-0.553-0.553V43.34z M30.758,52.644c0,0.3-0.254,0.553-0.554,0.553h-1.888c-0.3,0-0.553-0.253-0.553-0.553   V43.34c0-0.3,0.253-0.553,0.553-0.553h1.888c0.3,0,0.554,0.253,0.554,0.553V52.644z M46.449,17.664   c0-1.675,1.363-3.038,3.039-3.038c1.675,0,3.038,1.363,3.038,3.038c0,1.676-1.363,3.039-3.038,3.039   C47.813,20.703,46.449,19.34,46.449,17.664z M57.172,75.091c4.523,0,8.204,3.68,8.204,8.204v5.048H34.625v-5.048   c0-4.523,3.68-8.204,8.203-8.204H57.172z M34.533,63.459V34.553h30.934v28.907H34.533z"/><path fill="#000000" d="M43.36,42.534c-3.01,0-5.458,2.449-5.458,5.458c0,3.009,2.448,5.458,5.458,5.458   c3.01,0,5.458-2.449,5.458-5.458C48.818,44.983,46.37,42.534,43.36,42.534z M43.36,49.762c-0.976,0-1.77-0.794-1.77-1.77   c0-0.976,0.794-1.77,1.77-1.77c0.976,0,1.77,0.794,1.77,1.77C45.13,48.968,44.336,49.762,43.36,49.762z"/><path fill="#000000" d="M56.64,42.534c-3.01,0-5.458,2.449-5.458,5.458c0,3.009,2.448,5.458,5.458,5.458   c3.01,0,5.458-2.449,5.458-5.458C62.098,44.983,59.65,42.534,56.64,42.534z M56.64,49.762c-0.976,0-1.77-0.794-1.77-1.77   c0-0.976,0.794-1.77,1.77-1.77c0.976,0,1.77,0.794,1.77,1.77C58.41,48.968,57.616,49.762,56.64,49.762z"/></g><text x="0" y="115" fill="#000000" font-size="5px" font-weight="bold" font-family="'Helvetica Neue', Helvetica, Arial-Unicode, Arial, Sans-serif">Created by Oksana Latysheva</text><text x="0" y="120" fill="#000000" font-size="5px" font-weight="bold" font-family="'Helvetica Neue', Helvetica, Arial-Unicode, Arial, Sans-serif">from the Noun Project</text></svg>