<svg xmlns="http://www.w3.org/2000/svg" xmlns:xlink="http://www.w3.org/1999/xlink" version="1.1" x="0px" y="0px" viewBox="0 0 100 125" enable-background="new 0 0 100 100" xml:space="preserve"><g><path fill="#000000" d="M69.906,31.469c-0.094-0.327-0.485-2.312,0.851-9.77c0.735-4.092,0.332-6.989-1.231-8.858   c-1.222-1.46-3.108-2.201-5.605-2.201c-1.426,0-3.043,0.231-4.942,0.706c-5.389,1.347-4.621,4.982-3.649,9.585   c0.61,2.89,1.369,6.487,1.372,11.106c-1.657,26.237-31.814,45.091-32.118,45.278c-0.275,0.169-0.47,0.442-0.539,0.757   c-0.559,2.533-0.391,7.717,4.239,9.21c4.269,1.378,8.529,2.077,12.662,2.077c19.663,0,35.136-16.1,35.226-36.653   C76.227,40.073,70.854,32.674,69.906,31.469z M59.555,13.654c4.164-1.04,6.87-0.811,8.145,0.713   c1.068,1.277,1.31,3.603,0.716,6.911c-0.739,4.122-1.072,7.186-1.009,9.166c-0.098,0.012-0.196,0.023-0.291,0.066l-0.279,0.126   c-1.289,0.581-2.307,1.041-3.579,0.959c-0.428-0.027-0.85-0.047-1.268-0.067c-1.006-0.048-1.97-0.095-2.928-0.228   c-0.084-4.554-0.839-8.181-1.404-10.862C56.566,15.274,56.606,14.392,59.555,13.654z M51.53,54.057   c1.825,0.475,4.583,1.191,5.314,2.857c0.378,0.86,0.2,1.991-0.529,3.361c-0.58,1.092-1.578,1.815-2.965,2.148   c-2.265,0.544-5.206-0.07-7.22-1.046c2.006-2.415,3.794-4.863,5.348-7.333C51.497,54.048,51.512,54.052,51.53,54.057z    M41.755,66.244c1.139-1.167,2.212-2.347,3.243-3.533c1.758,0.934,4.195,1.614,6.496,1.614c0.779,0,1.541-0.078,2.254-0.249   c1.854-0.446,3.262-1.484,4.068-3.003c0.985-1.853,1.183-3.482,0.585-4.843c-0.994-2.264-3.882-3.143-6.006-3.703   c3.742-6.352,5.97-12.829,6.574-19.227c0.991,0.127,1.97,0.179,2.923,0.225c0.409,0.02,0.821,0.039,1.239,0.065   c0.143,0.009,0.282,0.013,0.42,0.013c0.054,0,0.101-0.012,0.153-0.013c2.025,13.451-0.118,24.454-6.399,32.699   C50.817,74.806,41.058,78.686,33.993,79.5c-0.44-1.34-1.861-2.447-3.355-3.503C33.614,73.762,37.636,70.466,41.755,66.244z    M26.289,79.051c0.515-0.332,1.439-0.946,2.646-1.807l0.029,0.021c1.396,0.977,3.133,2.192,3.173,3.056   c0.127,2.791-2.151,4.16-3.235,4.653C25.92,83.919,26.111,80.347,26.289,79.051z M40.944,86.98c-3.089,0-6.259-0.424-9.455-1.25   c1.306-1.027,2.489-2.587,2.637-4.735c7.377-0.841,17.588-4.89,24.372-13.795c6.536-8.578,8.777-19.957,6.691-33.82   c0.857-0.215,1.654-0.554,2.468-0.92l0.066-0.03c0.075,0.183,0.161,0.335,0.263,0.445c0.059,0.07,5.86,7.163,5.803,19.821   C73.706,71.92,59.279,86.98,40.944,86.98z"/></g><text x="0" y="115" fill="#000000" font-size="5px" font-weight="bold" font-family="'Helvetica Neue', Helvetica, Arial-Unicode, Arial, Sans-serif">Created by Imogen Oh</text><text x="0" y="120" fill="#000000" font-size="5px" font-weight="bold" font-family="'Helvetica Neue', Helvetica, Arial-Unicode, Arial, Sans-serif">from the Noun Project</text></svg>