<svg xmlns="http://www.w3.org/2000/svg" xmlns:xlink="http://www.w3.org/1999/xlink" version="1.1" x="0px" y="0px" viewBox="0 0 100 125" style="enable-background:new 0 0 100 100;" xml:space="preserve"><g><path d="M86.4,62.9c0.3-4.2,4.8-4,5.1-12.7c0-0.6,0-1.2,0-1.7c1.2-11-3.2-25.8-7.6-27.2C70.6,16.9,79,2.5,50.3,2.5   c-12.4,0-20.8,7.1-28.8,15.3c-4.9,5.1-8.6,13-8.7,20.6c0,0,0,0,0,0c0,0.1,0,0.1,0,0.2c0,1.7,0.1,3.4,0.5,5   c0.6,4.8,1.3,10.2-0.5,10.8C4.6,57.1,4.1,64,9.2,74.3c0,0.1,0.1,0.1,0.1,0.2c0-0.6,0-10.9,3.4-10.4c7.7,1.3,0.5,11.4-1.3,13.7   c6.8,9.8,17.1,16.9,29.1,19.6V86.3c2.8,2.2,6.1,3.7,10,3.7c3.7,0,7.2-1.3,10.2-3.7v11.2c14.7-3.1,27-12.9,33.3-26.1   C93,66.1,86.1,67.1,86.4,62.9z M28.9,50.5c0.2-3.1,0.9-5.7,1.7-7.8c10.9-3.6,17.4-12.2,19.8-15.9c3.9,7.1,13.4,12.1,19.3,14.7   c1.3,2.6,2.4,5.6,2.9,8.9c-7.8-2.8-15.4-4.3-22.8-4.3C39.7,46.1,32.5,48.8,28.9,50.5z M50.6,88.1c-4,0-7.3-1.8-10-4.3l0,0   c-0.1-0.1-0.3-0.2-0.4-0.4c-0.1-0.1-0.3-0.3-0.4-0.4c-0.1-0.1-0.3-0.3-0.4-0.4c-0.1-0.1-0.2-0.3-0.4-0.4c-0.2-0.2-0.4-0.5-0.6-0.7   c-0.1-0.2-0.2-0.3-0.4-0.5c-0.1-0.2-0.2-0.3-0.4-0.5c-0.1-0.1-0.2-0.3-0.3-0.4c-0.1-0.2-0.2-0.3-0.4-0.5c-0.1-0.1-0.2-0.3-0.3-0.4   c-0.2-0.3-0.4-0.6-0.6-0.9c-0.1-0.1-0.2-0.2-0.2-0.4c-0.1-0.2-0.2-0.4-0.3-0.5c-0.1-0.1-0.1-0.2-0.2-0.4c-0.2-0.4-0.4-0.8-0.7-1.2   c0,0,0-0.1-0.1-0.1c-0.1-0.2-0.2-0.4-0.3-0.6c-0.1-0.1-0.1-0.2-0.2-0.3c-0.1-0.2-0.2-0.4-0.3-0.5c-0.1-0.1-0.1-0.2-0.2-0.3   c-0.2-0.3-0.3-0.7-0.4-1c0-0.1-0.1-0.2-0.1-0.3c-0.1-0.2-0.2-0.4-0.2-0.5c0-0.1-0.1-0.2-0.1-0.3c-0.1-0.2-0.1-0.3-0.2-0.5   c0-0.1-0.1-0.1-0.1-0.2c-0.1-0.3-0.2-0.6-0.4-0.9c0-0.1-0.1-0.2-0.1-0.3c-0.1-0.1-0.1-0.3-0.2-0.4c0-0.1-0.1-0.2-0.1-0.3   c-0.1-0.2-0.2-0.4-0.2-0.7c0-0.1-0.1-0.2-0.1-0.3c0-0.1-0.1-0.2-0.1-0.3c0-0.1-0.1-0.2-0.1-0.3c0-0.1-0.1-0.2-0.1-0.3   c0-0.1-0.1-0.2-0.1-0.3c0-0.1-0.1-0.2-0.1-0.3c0-0.1-0.1-0.2-0.1-0.3c0-0.1,0-0.1-0.1-0.2c0-0.1,0-0.2-0.1-0.2c0,0,0-0.1,0-0.1   c0-0.1,0-0.2-0.1-0.3c0,0,0-0.1,0-0.1c0,0,0-0.1,0-0.1c0,0,0,0,0,0c0,0,0,0,0,0c-0.1,0.2-0.2,0.4-0.3,0.5c0,0.1-0.1,0.1-0.1,0.1   c-0.1,0.1-0.1,0.2-0.2,0.3c0,0.1-0.1,0.1-0.1,0.1c-0.1,0.1-0.1,0.1-0.2,0.2c0,0-0.1,0.1-0.1,0.1c-0.1,0.1-0.1,0.1-0.2,0.2   c0,0-0.1,0.1-0.1,0.1c-0.1,0-0.1,0.1-0.2,0.1c0,0-0.1,0-0.1,0.1c-0.1,0-0.1,0.1-0.2,0.1c0,0-0.1,0-0.1,0c0,0-0.1,0-0.1,0   c0,0-0.1,0-0.1,0c0,0-0.1,0-0.1,0c-0.1,0-0.2,0-0.3-0.1c0,0,0,0-0.1,0c-0.1,0-0.2-0.1-0.3-0.1c0,0,0,0-0.1,0   c-0.1-0.1-0.2-0.2-0.3-0.3c0,0,0,0-0.1-0.1c-0.1-0.1-0.2-0.2-0.3-0.3c0,0,0,0-0.1-0.1c-0.1-0.1-0.2-0.3-0.3-0.4c0,0,0-0.1-0.1-0.1   c-0.1-0.1-0.2-0.3-0.2-0.4c0,0,0-0.1,0-0.1c-0.1-0.2-0.2-0.4-0.2-0.6c0,0,0-0.1-0.1-0.1c-0.1-0.2-0.1-0.4-0.2-0.5c0,0,0,0,0-0.1   c-0.1-0.2-0.1-0.4-0.2-0.6c0,0,0-0.1,0-0.1c-0.1-0.2-0.1-0.4-0.2-0.6c0,0,0,0,0-0.1c-0.1-0.2-0.1-0.5-0.2-0.7c0-0.1,0-0.1,0-0.2   c-0.1-0.2-0.1-0.4-0.2-0.6c3,2.3,5.8,2.8,6.3-3c0.3-2.8,0.8-5.1,1.5-7c3.8-1.4,9.6-3,17.1-3c5.8,0,11.8,0.9,17.9,2.7   c0.8,1.9,1.4,4.4,1.6,7.4c0.6,6.4,4,5.1,7.4,2.2c0,0,0,0.1,0,0.1c0,0.1,0,0.1-0.1,0.2c-0.1,0.2-0.1,0.5-0.2,0.7   c0,0.1,0,0.1-0.1,0.2c-0.1,0.2-0.1,0.4-0.2,0.6c0,0.1,0,0.1-0.1,0.2c-0.1,0.2-0.2,0.4-0.2,0.7c0,0.1,0,0.1-0.1,0.2   c-0.1,0.2-0.2,0.4-0.2,0.6c0,0,0,0.1,0,0.1c-0.1,0.2-0.2,0.4-0.3,0.6c0,0,0,0.1-0.1,0.1c-0.1,0.2-0.2,0.3-0.3,0.5c0,0,0,0,0,0.1   c-0.1,0.2-0.2,0.3-0.3,0.5c0,0-0.1,0.1-0.1,0.1c-0.1,0.1-0.2,0.3-0.3,0.4c0,0,0,0,0,0c-0.1,0.1-0.2,0.2-0.3,0.3c0,0-0.1,0-0.1,0.1   c-0.1,0.1-0.2,0.1-0.4,0.2c0,0,0,0,0,0c-0.1,0-0.2,0.1-0.4,0.1c0,0-0.1,0-0.1,0c0,0-0.1,0-0.1,0c-0.1,0-0.1,0-0.2,0   c0,0-0.1,0-0.1,0c-0.1,0-0.1,0-0.2-0.1c0,0-0.1,0-0.1-0.1c-0.1,0-0.1-0.1-0.2-0.1c0,0-0.1-0.1-0.1-0.1c-0.1,0-0.1-0.1-0.2-0.1   c0,0-0.1-0.1-0.1-0.1c-0.1-0.1-0.1-0.1-0.2-0.2c0,0-0.1-0.1-0.1-0.1c-0.1-0.1-0.1-0.2-0.2-0.3c0,0-0.1-0.1-0.1-0.1   c-0.1-0.2-0.2-0.3-0.3-0.5c0,0,0,0,0,0c0,0,0,0,0,0.1c0,0,0,0.1,0,0.1c0,0,0,0.1,0,0.1c0,0,0,0.1,0,0.1c0,0.1,0,0.2-0.1,0.3   c0,0,0,0.1,0,0.1c0,0.1,0,0.2-0.1,0.3c0,0,0,0.1,0,0.1c-0.1,0.4-0.2,0.8-0.3,1.3c0,0,0,0,0,0c-1.1,3.8-3.6,11-8.3,15.9   c0,0-0.1,0.1-0.1,0.1c-0.2,0.2-0.4,0.4-0.6,0.6l0,0C58.1,86.3,54.7,88.1,50.6,88.1z"/><polygon points="45.3,76.3 45.3,78.3 50.9,79.6 56.6,78.3 56.6,76.3 50.9,75.6  "/><circle cx="40.5" cy="63.8" r="2.6"/><circle cx="60.4" cy="63.8" r="2.6"/><path d="M63.4,58.6c2.5,0.8,4.4,2.4,4.5,2.4l1.2-1.4c-3-2.5-10-5.8-15.2-0.5l1.3,1.3C57.4,58.1,60.1,57.5,63.4,58.6z"/><path d="M46.5,60.3l1.3-1.3c-5.2-5.2-12.2-1.9-15.2,0.5l1.2,1.4c0,0,1.9-1.6,4.5-2.4C41.5,57.5,44.3,58.1,46.5,60.3z"/><path d="M65.6,70.8c-0.1-0.3-0.1-0.5-0.1-0.5C65.6,70.4,65.6,70.7,65.6,70.8z"/><path d="M50.4,42.4l0.3,0.2l2,1c0,0,0.1,0,0.1,0c0,0,0,0,0.1,0c0,0,0,0,0.1,0c0.1-0.1,0.1-0.1,0.1-0.2l-0.5-2.2l-0.1-0.4l0.3-0.3   l1.6-1.6c0.1-0.1,0.1-0.2,0-0.2c0-0.1-0.1-0.1-0.2-0.1L52,38.2l-0.4,0l-0.2-0.3l-1.1-2c0-0.1-0.1-0.1-0.2-0.1c0,0,0,0-0.1,0   c-0.1,0-0.1,0.1-0.1,0.1L49,37.9l-0.2,0.4l-0.4,0.1l-2.2,0.4c0,0,0,0,0,0c-0.1,0-0.1,0.1-0.1,0.2c0,0.1,0,0.2,0.1,0.2l1.7,1.5   l0.3,0.3l0,0.4l-0.3,2.2c0,0.1,0,0.2,0.1,0.2c0,0,0.1,0,0.1,0c0,0,0,0,0.1,0c0,0,0,0,0,0l2-1.1L50.4,42.4z"/></g><text x="0" y="115" fill="#000000" font-size="5px" font-weight="bold" font-family="'Helvetica Neue', Helvetica, Arial-Unicode, Arial, Sans-serif">Created by James Fenton</text><text x="0" y="120" fill="#000000" font-size="5px" font-weight="bold" font-family="'Helvetica Neue', Helvetica, Arial-Unicode, Arial, Sans-serif">from the Noun Project</text></svg>