<svg xmlns="http://www.w3.org/2000/svg" xmlns:xlink="http://www.w3.org/1999/xlink" version="1.1" x="0px" y="0px" viewBox="0 0 100 125" enable-background="new 0 0 100 100" xml:space="preserve"><g><path fill="#000000" d="M75.493,34.656l-3.665-22.048c-0.057-0.337-0.261-0.632-0.558-0.804c-0.296-0.171-0.655-0.201-0.975-0.081   l-20.927,7.849c-0.31,0.117-0.555,0.361-0.67,0.672L34.995,56.951l-3.191-1.843c-2.02-1.164-3.971-0.293-4.785,1.118   c-0.83,1.438-0.604,3.51,1.435,4.687c0.545,0.316,1.247,0.128,1.563-0.419c0.316-0.547,0.129-1.248-0.419-1.564   c-0.827-0.478-0.85-1.118-0.596-1.559c0.26-0.448,0.826-0.757,1.657-0.279l3.514,2.029l-0.387,5.413   c-0.025,0.034-0.062,0.056-0.083,0.094l-8.392,14.534c-1.688,2.924-0.683,6.678,2.242,8.367c0.943,0.544,1.989,0.822,3.05,0.822   c0.532,0,1.068-0.07,1.597-0.211c1.58-0.424,2.901-1.438,3.718-2.854l8.392-14.534c0.093-0.16,0.13-0.333,0.14-0.505l4.45-2.622   l3.741,2.16c0.479,0.276,0.731,0.638,0.731,1.047c0.001,0.369-0.204,0.726-0.52,0.908c-0.441,0.256-0.936,0.077-1.273-0.118   c-0.549-0.316-1.247-0.129-1.563,0.419c-0.316,0.547-0.129,1.248,0.419,1.564c0.635,0.367,1.299,0.551,1.941,0.551   c0.568,0,1.121-0.144,1.622-0.434c1.027-0.593,1.665-1.701,1.664-2.892c0-1.238-0.685-2.342-1.877-3.03l-3.476-2.007l24.937-30.222   C75.457,35.317,75.547,34.983,75.493,34.656z M73.096,34.197l-13.895,0.313l10.828-18.756L73.096,34.197z M57.642,33.611   L50.966,21.42l17.505-6.566L57.642,33.611z M50.187,22.808l6.666,12.171L41.874,60.923l-4.868-2.812L50.187,22.808z M35.383,66.297   l6.641,3.834l-3.009,5.211l-5.502-5.807L35.383,66.297z M35.262,81.841l-5.502-5.806l3.048-5.279l5.502,5.806L35.262,81.841z    M31.607,85.927c-0.99,0.264-2.023,0.13-2.909-0.382c-1.831-1.058-2.461-3.408-1.404-5.239l1.762-3.05l5.502,5.806l-0.623,1.079   C33.424,85.027,32.597,85.662,31.607,85.927z M43.337,68.697l-7.629-4.405l0.294-4.115l11.008,6.356L43.337,68.697z M43.433,61.823   l14.979-25.944l13.872-0.313L48.3,64.633L43.433,61.823z"/></g><text x="0" y="115" fill="#000000" font-size="5px" font-weight="bold" font-family="'Helvetica Neue', Helvetica, Arial-Unicode, Arial, Sans-serif">Created by Imogen Oh</text><text x="0" y="120" fill="#000000" font-size="5px" font-weight="bold" font-family="'Helvetica Neue', Helvetica, Arial-Unicode, Arial, Sans-serif">from the Noun Project</text></svg>