<svg xmlns="http://www.w3.org/2000/svg" xmlns:xlink="http://www.w3.org/1999/xlink" version="1.1" x="0px" y="0px" viewBox="0 0 100 125" enable-background="new 0 0 100 100" xml:space="preserve"><g><path fill="#000000" d="M91.185,48.98c-0.749,3.293-3.783,6.274-6.286,7.65c-0.103,0.057-0.215,0.084-0.325,0.084   c-0.238,0-0.469-0.126-0.592-0.35c-0.18-0.327-0.061-0.737,0.266-0.917c2.318-1.275,4.993-4.008,5.62-6.766   c0.083-0.364,0.442-0.59,0.808-0.509C91.04,48.255,91.267,48.617,91.185,48.98z M82.444,62.322   c-0.085,0.021-0.172,0.032-0.26,0.032s-0.175-0.011-0.26-0.032c-6.923-1.725-14.005-8.919-13.515-16.881   c0.293-4.808,3.237-7.795,7.682-7.795c2.485,0,4.811,1.268,6.109,3.093c1.297-1.869,3.56-3.093,6.076-3.093   c4.444,0,7.388,2.987,7.683,7.795C96.451,53.402,89.368,60.598,82.444,62.322z M93.815,45.573   c-0.226-3.671-2.244-5.777-5.538-5.777c-2.495,0-4.704,1.743-5.029,3.969c-0.079,0.542-0.558,0.937-1.097,0.919   c-0.546-0.018-0.993-0.442-1.038-0.986c-0.171-2.079-2.518-3.902-5.021-3.902c-3.294,0-5.312,2.105-5.537,5.776   c-0.338,5.502,4.245,12.62,11.629,14.597C89.569,58.192,94.153,51.074,93.815,45.573z M26.305,48.173   c-0.366-0.082-0.725,0.145-0.808,0.509c-0.627,2.758-3.301,5.492-5.619,6.766c-0.327,0.18-0.446,0.59-0.266,0.917   c0.123,0.224,0.354,0.35,0.592,0.35c0.11,0,0.222-0.027,0.325-0.084c2.502-1.375,5.537-4.356,6.285-7.65   C26.896,48.617,26.668,48.255,26.305,48.173z M31.59,45.441c0.489,7.961-6.594,15.157-13.516,16.881   c-0.085,0.021-0.172,0.032-0.26,0.032s-0.174-0.011-0.26-0.032c-6.923-1.725-14.006-8.92-13.516-16.881   c0.294-4.808,3.238-7.795,7.683-7.795c2.485,0,4.81,1.268,6.109,3.092c1.297-1.869,3.56-3.092,6.077-3.092   C28.352,37.646,31.295,40.633,31.59,45.441z M29.445,45.573c-0.226-3.671-2.244-5.777-5.538-5.777   c-2.496,0-4.705,1.743-5.029,3.969c-0.079,0.541-0.519,0.937-1.098,0.919c-0.546-0.017-0.993-0.441-1.038-0.986   c-0.171-2.079-2.518-3.902-5.021-3.902c-3.294,0-5.312,2.105-5.537,5.777c-0.338,5.501,4.246,12.619,11.63,14.596   C25.198,58.192,29.783,51.074,29.445,45.573z M63.703,45.441c0.49,7.961-6.593,15.156-13.516,16.881   c-0.085,0.021-0.172,0.032-0.26,0.032s-0.175-0.011-0.26-0.032c-6.923-1.725-14.005-8.92-13.515-16.881   c0.295-4.808,3.239-7.795,7.682-7.795c2.485,0,4.811,1.268,6.109,3.093c1.297-1.869,3.56-3.093,6.076-3.093   C60.464,37.646,63.408,40.633,63.703,45.441z M61.557,45.573c-0.226-3.671-2.244-5.777-5.538-5.777   c-2.495,0-4.704,1.743-5.029,3.969c-0.079,0.542-0.548,0.937-1.097,0.919c-0.546-0.018-0.993-0.442-1.038-0.986   c-0.171-2.079-2.518-3.902-5.021-3.902c-3.293,0-5.311,2.105-5.537,5.777c-0.338,5.501,4.245,12.619,11.629,14.596   C57.312,58.192,61.896,51.074,61.557,45.573z M58.418,48.173c-0.364-0.082-0.725,0.145-0.808,0.509   c-0.627,2.758-3.302,5.492-5.62,6.766c-0.327,0.179-0.446,0.59-0.266,0.917c0.123,0.224,0.354,0.35,0.592,0.35   c0.11,0,0.222-0.027,0.325-0.084c2.503-1.375,5.538-4.356,6.286-7.65C59.009,48.617,58.782,48.255,58.418,48.173z"/></g><text x="0" y="115" fill="#000000" font-size="5px" font-weight="bold" font-family="'Helvetica Neue', Helvetica, Arial-Unicode, Arial, Sans-serif">Created by Imogen Oh</text><text x="0" y="120" fill="#000000" font-size="5px" font-weight="bold" font-family="'Helvetica Neue', Helvetica, Arial-Unicode, Arial, Sans-serif">from the Noun Project</text></svg>