<svg xmlns="http://www.w3.org/2000/svg" xmlns:xlink="http://www.w3.org/1999/xlink" version="1.1" x="0px" y="0px" viewBox="0 0 100 125" enable-background="new 0 0 100 100" xml:space="preserve"><g><path fill="#000000" d="M84.006,57.989c0.068-0.233,0.038-0.484-0.086-0.693l-1.826-3.094l1.825-3.085   c0.163-0.275,0.163-0.616,0-0.891l-1.895-3.204l0.768-2.599c0.258-0.213,0.422-0.529,0.398-0.886   c0.091-0.441,0.242-0.873,0.481-1.281c0.286-0.489,0.123-1.117-0.366-1.403c-0.347-0.203-0.757-0.17-1.072,0.034   c-1.277-1.903-3.654-3.242-6.205-3.242c-4.445,0-7.389,2.987-7.682,7.795c-0.49,7.961,6.592,15.156,13.515,16.881   c0.087,0.022,0.174,0.032,0.261,0.032c0.482,0,0.92-0.327,1.042-0.815c0.05-0.201,0.022-0.395-0.036-0.579L84.006,57.989z    M70.493,45.572c0.225-3.671,2.243-5.776,5.537-5.776c2.503,0,4.85,1.823,5.021,3.902c0.007,0.083,0.042,0.153,0.065,0.229   l-0.877,2.965c-0.069,0.233-0.038,0.484,0.086,0.693l1.825,3.087l-1.825,3.084c-0.163,0.275-0.163,0.616,0,0.891l1.896,3.211   l-0.632,2.14C74.522,57.826,70.163,50.938,70.493,45.572z M91.809,54.708c0.43,0.368,0.481,1.015,0.113,1.445   c-0.451,0.527-0.94,1.042-1.455,1.527c-0.198,0.188-0.451,0.28-0.704,0.28c-0.272,0-0.543-0.107-0.745-0.321   c-0.389-0.411-0.371-1.06,0.041-1.449c0.461-0.437,0.9-0.897,1.304-1.37C90.731,54.39,91.377,54.339,91.809,54.708z M95.117,50.668   c-0.228,0.663-0.508,1.326-0.834,1.97c-0.181,0.356-0.542,0.562-0.916,0.562c-0.156,0-0.314-0.036-0.462-0.111   c-0.505-0.256-0.707-0.873-0.451-1.378c0.284-0.56,0.528-1.135,0.724-1.708c0.184-0.536,0.767-0.821,1.302-0.637   S95.301,50.132,95.117,50.668z M95.873,46.238l-0.001,0.195c-0.009,0.56-0.466,1.008-1.024,1.008c-0.006,0-0.012,0-0.018,0   c-0.566-0.009-1.017-0.476-1.008-1.042l0.001-0.161c0-0.222-0.007-0.444-0.021-0.667c-0.021-0.337-0.058-0.663-0.11-0.978   c-0.093-0.558,0.284-1.086,0.843-1.18c0.557-0.091,1.086,0.284,1.18,0.843c0.063,0.383,0.109,0.779,0.134,1.188   C95.865,45.709,95.873,45.974,95.873,46.238z M93.115,41.833c-0.289,0-0.576-0.122-0.779-0.358c-0.36-0.42-0.784-0.771-1.26-1.04   c-0.493-0.279-0.666-0.905-0.387-1.397c0.279-0.492,0.906-0.667,1.397-0.387c0.685,0.388,1.293,0.889,1.808,1.491   c0.368,0.43,0.318,1.077-0.112,1.445C93.588,41.752,93.351,41.833,93.115,41.833z M88.743,38.663   c0.042,0.564-0.381,1.057-0.945,1.099c-0.562,0.042-1.111,0.17-1.631,0.381c-0.126,0.051-0.256,0.075-0.384,0.075   c-0.405,0-0.789-0.242-0.951-0.641c-0.212-0.524,0.041-1.122,0.565-1.335c0.717-0.291,1.473-0.467,2.247-0.525   C88.222,37.675,88.701,38.099,88.743,38.663z M87.466,58.83c0.295,0.483,0.142,1.114-0.341,1.409c-0.608,0.371-1.235,0.708-1.863,1   c-0.14,0.065-0.288,0.096-0.433,0.096c-0.386,0-0.756-0.219-0.93-0.592c-0.239-0.513-0.017-1.123,0.496-1.362   c0.559-0.26,1.118-0.561,1.661-0.892C86.54,58.193,87.17,58.346,87.466,58.83z M26.877,48.98c-0.749,3.294-3.783,6.274-6.286,7.65   c-0.103,0.057-0.215,0.084-0.325,0.084c-0.238,0-0.469-0.126-0.592-0.35c-0.18-0.327-0.061-0.737,0.266-0.917   c2.318-1.274,4.993-4.008,5.62-6.766c0.083-0.364,0.443-0.59,0.808-0.509C26.732,48.255,26.959,48.617,26.877,48.98z M23.97,37.646   c-2.517,0-4.779,1.224-6.076,3.093c-1.299-1.825-3.624-3.093-6.108-3.093c-4.445,0-7.39,2.987-7.683,7.795   c-0.49,7.962,6.592,15.157,13.515,16.881c0.085,0.021,0.172,0.032,0.26,0.032s0.174-0.011,0.26-0.032   c6.923-1.725,14.006-8.92,13.516-16.881C31.358,40.633,28.414,37.646,23.97,37.646z M17.877,60.169   c-7.384-1.977-11.968-9.095-11.629-14.597c0.225-3.671,2.243-5.776,5.538-5.776c2.503,0,4.849,1.823,5.021,3.902   c0.045,0.544,0.491,0.969,1.038,0.986c0.543,0.017,1.019-0.378,1.097-0.919c0.326-2.226,2.535-3.969,5.029-3.969   c3.294,0,5.312,2.105,5.538,5.777C29.846,51.074,25.262,58.192,17.877,60.169z M56.083,37.646c-2.517,0-4.78,1.223-6.077,3.092   c-1.299-1.825-3.624-3.092-6.109-3.092c-4.444,0-7.388,2.987-7.683,7.795c-0.489,7.962,6.594,15.157,13.516,16.881   c0.085,0.021,0.172,0.032,0.26,0.032s0.175-0.011,0.26-0.032c6.923-1.725,14.005-8.92,13.516-16.881   C63.472,40.633,60.528,37.646,56.083,37.646z M49.99,60.169c-7.384-1.977-11.968-9.095-11.63-14.596   c0.226-3.671,2.244-5.777,5.538-5.777c2.503,0,4.85,1.823,5.021,3.902c0.045,0.545,0.491,0.969,1.038,0.986   c0.583,0.017,1.019-0.378,1.098-0.919c0.324-2.226,2.533-3.969,5.029-3.969c3.294,0,5.312,2.105,5.537,5.777   C61.958,51.074,57.375,58.192,49.99,60.169z M58.989,48.98c-0.749,3.294-3.783,6.274-6.286,7.65   c-0.103,0.057-0.215,0.084-0.325,0.084c-0.238,0-0.469-0.126-0.592-0.35c-0.18-0.327-0.061-0.737,0.266-0.917   c2.318-1.274,4.993-4.008,5.62-6.766c0.083-0.364,0.442-0.59,0.808-0.509C58.844,48.255,59.072,48.617,58.989,48.98z"/></g><text x="0" y="115" fill="#000000" font-size="5px" font-weight="bold" font-family="'Helvetica Neue', Helvetica, Arial-Unicode, Arial, Sans-serif">Created by Imogen Oh</text><text x="0" y="120" fill="#000000" font-size="5px" font-weight="bold" font-family="'Helvetica Neue', Helvetica, Arial-Unicode, Arial, Sans-serif">from the Noun Project</text></svg>