<svg xmlns:dc="http://purl.org/dc/elements/1.1/" xmlns:cc="http://creativecommons.org/ns#" xmlns:rdf="http://www.w3.org/1999/02/22-rdf-syntax-ns#" xmlns:svg="http://www.w3.org/2000/svg" xmlns="http://www.w3.org/2000/svg" xmlns:sodipodi="http://sodipodi.sourceforge.net/DTD/sodipodi-0.dtd" xmlns:inkscape="http://www.inkscape.org/namespaces/inkscape" viewBox="0 0 727.26865 709.5252625" version="1.1" x="0px" y="0px"><g transform="translate(-101.15915,-332.19002)"><path style="" d="m 426.60182,332.28423 c -12.435,-0.553 -25.18,1.316 -37.576,5.939 l -225.217,83.153 c -49.649,18.433 -74.975001,73.688 -56.729,123.276 l 83.154,225.095 c 18.494,49.65 73.688,75.034 123.275,56.85 l 56.729,-21.213 0,-189.822 c -1.8,1.055 -3.655,1.86 -5.455,2.667 -20.046,7.385 -42.071,-2.622 -49.456,-22.668 -7.385,-19.797 2.622,-41.948 22.667,-49.334 11.358,-4.158 23.476,-2.688 32.971,3.394 2.11,-18.742 8.559,-35.829 18.303,-50.91 -7.944,-4.158 -14.29,-11.122 -17.455,-20.121 -7.447,-19.984 2.559,-41.887 22.667,-49.334 19.736,-7.386 41.707,2.689 49.092,22.424 14.771,-6.578 31.41,-10.303 48.85,-10.303 l 36.97,0 -17.091,-46.426 c -13.871,-37.423 -48.395,-61.009 -85.699,-62.667 z m 65.82,135.76 c -53.001,0 -95.881,42.88 -95.881,95.881 l 0,240.005 c 0,53.001 42.88,95.88 95.881,95.88 l 240.005,0 c 53.001,0 96.001,-42.879 96.001,-95.88 l 0,-240.005 c 0,-53.001 -43,-95.881 -96.001,-95.881 l -240.005,0 z m -258.551,23.758 c 14.947,0.652 28.886,10.057 34.425,25.092 7.385,19.798 -2.87,41.954 -22.668,49.091 -20.045,7.448 -41.948,-2.559 -49.334,-22.667 -7.385,-19.797 2.5,-41.955 22.546,-49.092 4.95,-1.846 10.048,-2.641 15.031,-2.424 z m 293.824,69.577 c 9.829,0 19.674,3.794 27.152,11.273 15.019,15.019 15.019,39.347 0,54.304 -14.956,15.019 -39.285,15.019 -54.304,0 -14.957,-14.957 -14.957,-39.285 0,-54.304 7.51,-7.479 17.323,-11.273 27.152,-11.273 z m 84.123,84.123 c 9.837,0 19.643,3.794 27.152,11.273 14.957,15.019 14.957,39.285 0,54.304 -15.019,15.019 -39.285,15.019 -54.304,0 -14.957,-14.957 -14.957,-39.285 0,-54.304 7.51,-7.479 17.315,-11.273 27.152,-11.273 z m -317.34,9.819 c 14.93,0.709 28.765,10.121 34.304,24.97 7.385,19.735 -2.932,41.949 -22.667,49.334 -20.046,7.385 -42.07,-2.81 -49.456,-22.546 -7.385,-19.798 2.743,-42.07 22.789,-49.456 4.949,-1.846 10.054,-2.539 15.03,-2.302 z m 401.463,74.304 c 9.829,0 19.642,3.794 27.152,11.273 14.957,15.019 14.957,39.347 0,54.304 -15.019,15.019 -39.347,15.019 -54.304,0 -15.019,-14.957 -15.019,-39.285 0,-54.304 7.478,-7.479 17.323,-11.273 27.152,-11.273 z" fill="#000000"/></g><text x="0" y="582.62021" fill="#000000" font-size="5px" font-weight="bold" font-family="'Helvetica Neue', Helvetica, Arial-Unicode, Arial, Sans-serif">Created by Hopkins</text><text x="0" y="587.62021" fill="#000000" font-size="5px" font-weight="bold" font-family="'Helvetica Neue', Helvetica, Arial-Unicode, Arial, Sans-serif">from the Noun Project</text></svg>