<svg xmlns="http://www.w3.org/2000/svg" xmlns:xlink="http://www.w3.org/1999/xlink" version="1.1" x="0px" y="0px" viewBox="0 0 100 125" enable-background="new 0 0 100 100" xml:space="preserve"><g><path fill="#000000" d="M68.967,34.45L48.875,20.184c-0.397-0.282-0.929-0.282-1.326,0L27.457,34.45   c-0.302,0.215-0.482,0.562-0.482,0.934V69.31c0,0.37,0.179,0.717,0.479,0.932l20.092,14.359c0.199,0.142,0.432,0.213,0.666,0.213   s0.467-0.071,0.666-0.213l20.092-14.359c0.301-0.215,0.479-0.562,0.479-0.932V35.384C69.449,35.013,69.269,34.665,68.967,34.45z    M29.265,36.792l8.103,4.503v22.13l-8.103,4.48V36.792z M58.413,40.108l-9.527-6.604V23.001l17.698,12.566L58.413,40.108z    M48.211,69.128l-8.944-5.965V41.548l8.944-6.2l8.944,6.2v21.614L48.211,69.128z M47.537,33.504l-9.527,6.604l-8.171-4.541   l17.698-12.566V33.504z M38.014,64.61l9.523,6.352V81.78L29.838,69.131L38.014,64.61z M48.886,70.962l9.524-6.352l8.175,4.521   L48.886,81.78V70.962z M59.056,63.425v-22.13l8.103-4.503v31.113L59.056,63.425z M36.9,16.18c-0.22-0.23-0.35-0.53-0.35-0.85   c0-0.31,0.13-0.61,0.35-0.84c0.45-0.44,1.24-0.44,1.68,0c0.23,0.23,0.35,0.53,0.35,0.84c0,0.32-0.12,0.62-0.34,0.85   c-0.23,0.22-0.53,0.35-0.85,0.35C37.43,16.53,37.12,16.4,36.9,16.18z M57.063,14.842c0-0.497,0.403-0.9,0.9-0.9h1.304v-1.303   c0-0.497,0.403-0.9,0.9-0.9s0.9,0.403,0.9,0.9v1.303h1.301c0.497,0,0.9,0.403,0.9,0.9s-0.403,0.9-0.9,0.9h-1.301v1.302   c0,0.497-0.403,0.9-0.9,0.9s-0.9-0.403-0.9-0.9v-1.302h-1.304C57.466,15.742,57.063,15.339,57.063,14.842z M20.25,63.18   c0.22,0.22,0.35,0.53,0.35,0.84c0,0.31-0.13,0.62-0.35,0.84c-0.22,0.22-0.53,0.35-0.84,0.35s-0.62-0.13-0.84-0.35   c-0.22-0.22-0.35-0.53-0.35-0.84c0-0.32,0.13-0.62,0.35-0.84C19.01,62.73,19.81,62.73,20.25,63.18z M34.527,85.159   c0,0.497-0.403,0.9-0.9,0.9h-1.302v1.3c0,0.497-0.403,0.9-0.9,0.9s-0.9-0.403-0.9-0.9v-1.3h-1.303c-0.497,0-0.9-0.403-0.9-0.9   s0.403-0.9,0.9-0.9h1.303v-1.303c0-0.497,0.403-0.9,0.9-0.9s0.9,0.403,0.9,0.9v1.303h1.302   C34.124,84.259,34.527,84.662,34.527,85.159z M61.73,86.52c0.22,0.22,0.35,0.53,0.35,0.84s-0.13,0.62-0.35,0.84   c-0.22,0.22-0.53,0.35-0.84,0.35s-0.62-0.13-0.84-0.35c-0.23-0.22-0.35-0.53-0.35-0.84s0.12-0.62,0.34-0.84   C60.49,86.07,61.28,86.07,61.73,86.52z M81.493,66.203c0,0.497-0.403,0.9-0.9,0.9h-1.302v1.3c0,0.497-0.403,0.9-0.9,0.9   s-0.9-0.403-0.9-0.9v-1.3h-1.302c-0.497,0-0.9-0.403-0.9-0.9s0.403-0.9,0.9-0.9h1.302v-1.302c0-0.497,0.403-0.9,0.9-0.9   s0.9,0.403,0.9,0.9v1.302h1.302C81.09,65.303,81.493,65.706,81.493,66.203z"/></g><text x="0" y="115" fill="#000000" font-size="5px" font-weight="bold" font-family="'Helvetica Neue', Helvetica, Arial-Unicode, Arial, Sans-serif">Created by Imogen Oh</text><text x="0" y="120" fill="#000000" font-size="5px" font-weight="bold" font-family="'Helvetica Neue', Helvetica, Arial-Unicode, Arial, Sans-serif">from the Noun Project</text></svg>