<svg xmlns="http://www.w3.org/2000/svg" xmlns:xlink="http://www.w3.org/1999/xlink" version="1.1" x="0px" y="0px" viewBox="0 0 100 125" enable-background="new 0 0 100 100" xml:space="preserve"><g><path fill="#000000" d="M34.71,79.49c0.22,0.22,0.34,0.52,0.34,0.84c0,0.31-0.12,0.62-0.34,0.84c-0.23,0.22-0.53,0.35-0.85,0.35   c-0.31,0-0.61-0.13-0.84-0.35c-0.22-0.22-0.35-0.53-0.35-0.84c0-0.32,0.13-0.62,0.35-0.84C33.47,79.04,34.26,79.04,34.71,79.49z    M71.54,57.81c-0.22,0.22-0.35,0.53-0.35,0.84c0,0.32,0.13,0.62,0.35,0.84c0.22,0.23,0.53,0.35,0.84,0.35   c0.32,0,0.62-0.12,0.84-0.35c0.22-0.22,0.35-0.52,0.35-0.84c0-0.31-0.13-0.62-0.35-0.84C72.78,57.37,71.98,57.37,71.54,57.81z    M38.56,43.1c0.31,0,0.62-0.12,0.84-0.35c0.22-0.22,0.35-0.52,0.35-0.84c0-0.31-0.13-0.62-0.35-0.84c-0.44-0.44-1.23-0.44-1.68,0   c-0.22,0.22-0.35,0.53-0.35,0.84s0.13,0.62,0.35,0.85C37.94,42.98,38.25,43.1,38.56,43.1z M75.104,37.901   c0,3.897-1.514,7.557-4.264,10.305c-2.742,2.743-6.395,4.254-10.284,4.254c0,0,0,0,0,0c-2.352,0-4.663-0.564-6.733-1.639   L48.4,56.244l4.096,4.096c0.349,0.35,0.851,1.14,0.284,2.508c-0.691,1.668-3.209,4.241-5.14,4.241c-0.532,0-1-0.186-1.352-0.537   l-4.097-4.099l-1.662,1.661l4.096,4.097c0.35,0.35,0.851,1.141,0.283,2.509c-0.692,1.667-3.21,4.24-5.141,4.24   c-0.533,0-1.001-0.187-1.354-0.54l-4.113-4.114l-2.534,2.418c-0.334,0.335-0.802,0.521-1.335,0.521   c-1.931,0-4.45-2.574-5.141-4.242c-0.566-1.368-0.065-2.158,0.284-2.507l22.037-21.887c-2.918-5.618-1.896-12.503,2.616-17.015   c2.749-2.75,6.409-4.264,10.306-4.264c3.898,0,7.558,1.515,10.306,4.265C73.589,30.343,75.104,34.003,75.104,37.901z    M39.768,72.811c-0.001,0-0.002,0-0.004,0l0.004,1.075V72.811z M72.954,37.901c0-3.323-1.291-6.442-3.635-8.784   c-2.343-2.345-5.462-3.635-8.786-3.635c-3.323,0-6.443,1.291-8.786,3.634c-4.016,4.016-4.788,10.239-1.878,15.134   c0.252,0.424,0.184,0.965-0.167,1.312L27.192,67.921c0.045,0.254,0.336,0.896,1.099,1.709c0.841,0.898,1.706,1.402,2.075,1.46   l3.21-3.065c0.208-0.198,0.475-0.297,0.742-0.297c0.275,0,0.551,0.105,0.76,0.315l4.759,4.761c0.372-0.062,1.234-0.566,2.074-1.462   c0.762-0.813,1.052-1.454,1.096-1.708l-4.759-4.76c-0.202-0.202-0.315-0.476-0.315-0.761c0-0.285,0.114-0.558,0.315-0.76   l3.183-3.181c0.421-0.42,1.101-0.419,1.52,0l4.757,4.759c0.375-0.063,1.235-0.566,2.072-1.459c0.763-0.814,1.053-1.456,1.098-1.709   l-4.759-4.759c-0.419-0.42-0.42-1.101,0-1.521l6.755-6.757c0.347-0.348,0.887-0.415,1.31-0.164c1.919,1.143,4.122,1.746,6.37,1.747   c3.315,0,6.428-1.287,8.765-3.625C71.664,44.343,72.954,41.223,72.954,37.901z M65.956,32.476c2.989,2.994,2.989,7.86,0.001,10.849   c-1.448,1.446-3.374,2.242-5.423,2.242s-3.975-0.796-5.421-2.242c-2.99-2.993-2.991-7.859-0.001-10.848   c1.447-1.446,3.373-2.242,5.423-2.242C62.583,30.235,64.509,31.031,65.956,32.476z M64.436,33.996   c-1.04-1.039-2.426-1.611-3.901-1.611c-1.476,0-2.862,0.573-3.903,1.613c-2.151,2.15-2.15,5.652,0.002,7.807   c1.04,1.039,2.425,1.612,3.9,1.612s2.862-0.573,3.903-1.613C66.587,39.653,66.587,36.15,64.436,33.996z M64.703,60.454h-0.994   l0-0.992c0-0.497-0.403-0.899-0.9-0.899h0c-0.497,0-0.9,0.403-0.899,0.9l0,0.991h-0.994c-0.497,0-0.9,0.403-0.9,0.9   s0.403,0.9,0.9,0.9h0.995l0,0.995c0,0.497,0.403,0.899,0.9,0.899h0c0.497,0,0.9-0.403,0.899-0.9l0-0.994h0.993   c0.497,0,0.9-0.403,0.9-0.9S65.2,60.454,64.703,60.454z M25.972,48.461h0.996v0.995c0,0.497,0.403,0.9,0.9,0.9s0.9-0.403,0.9-0.9   v-0.995h0.996c0.497,0,0.9-0.403,0.9-0.9s-0.403-0.9-0.9-0.9h-0.995v-0.994c0-0.497-0.403-0.9-0.9-0.9s-0.9,0.403-0.9,0.9v0.994   h-0.997c-0.497,0-0.9,0.403-0.9,0.9S25.475,48.461,25.972,48.461z M48.46,20.86c0.31,0,0.62-0.12,0.84-0.35   c0.22-0.22,0.35-0.52,0.35-0.84c0-0.31-0.13-0.62-0.35-0.84c-0.44-0.44-1.24-0.44-1.68,0c-0.23,0.22-0.35,0.53-0.35,0.84   s0.12,0.62,0.35,0.84C47.84,20.74,48.14,20.86,48.46,20.86z"/></g><text x="0" y="115" fill="#000000" font-size="5px" font-weight="bold" font-family="'Helvetica Neue', Helvetica, Arial-Unicode, Arial, Sans-serif">Created by Imogen Oh</text><text x="0" y="120" fill="#000000" font-size="5px" font-weight="bold" font-family="'Helvetica Neue', Helvetica, Arial-Unicode, Arial, Sans-serif">from the Noun Project</text></svg>