<svg xmlns="http://www.w3.org/2000/svg" xmlns:xlink="http://www.w3.org/1999/xlink" version="1.1" x="0px" y="0px" viewBox="0 0 100 125" enable-background="new 0 0 100 100" xml:space="preserve"><g><path fill="#000000" d="M52.985,61.275v2.01c0,0.497-0.403,0.9-0.9,0.9s-0.9-0.403-0.9-0.9v-2.01c0-0.497,0.403-0.9,0.9-0.9   S52.985,60.778,52.985,61.275z M47.915,60.375c-0.497,0-0.9,0.403-0.9,0.9v2.01c0,0.497,0.403,0.9,0.9,0.9s0.9-0.403,0.9-0.9v-2.01   C48.814,60.778,48.412,60.375,47.915,60.375z M44.163,31.414c0.384-0.115,0.602-0.519,0.487-0.902s-0.521-0.6-0.902-0.487   c-6.196,1.854-10.92,6.289-12.962,12.169c-0.131,0.378,0.069,0.792,0.447,0.923c0.079,0.027,0.159,0.04,0.238,0.04   c0.3,0,0.581-0.188,0.685-0.487C34.042,37.234,38.418,33.132,44.163,31.414z M47.4,30.1c0-0.19-0.07-0.38-0.21-0.51   c-0.27-0.27-0.75-0.27-1.02,0c-0.14,0.13-0.22,0.32-0.22,0.51c0,0.19,0.08,0.38,0.22,0.51c0.13,0.14,0.31,0.22,0.51,0.22   c0.19,0,0.38-0.08,0.51-0.21C47.33,30.48,47.4,30.3,47.4,30.1z M74.972,48.609c0,8.695-3.459,14.846-11.196,19.866l-0.004,2.305   c0,2.546-2.073,4.62-4.621,4.62c-1.143,0-2.222-0.425-3.052-1.165c-0.83,0.739-1.908,1.165-3.051,1.165   c-1.143,0-2.221-0.425-3.05-1.165c-0.83,0.739-1.908,1.165-3.051,1.165s-2.221-0.425-3.051-1.165   c-0.83,0.739-1.908,1.165-3.051,1.165c-2.549,0-4.623-2.073-4.623-4.622v-2.304c-7.736-5.021-11.195-11.173-11.195-19.865   c0-13.464,10.969-24.01,24.973-24.01C64.003,24.599,74.972,35.145,74.972,48.609z M72.672,48.609   c0-12.174-9.958-21.71-22.672-21.71c-12.714,0-22.673,9.537-22.673,21.71c0,8.119,3.187,13.58,10.655,18.26   c0.336,0.21,0.54,0.579,0.54,0.975v2.935c0,1.28,1.042,2.322,2.323,2.322c0.848,0,1.628-0.475,2.036-1.239   c0.047-0.088,0.107-0.165,0.175-0.232v-1.05c0-0.497,0.403-0.9,0.9-0.9s0.9,0.403,0.9,0.9v1.209   c0.017,0.025,0.04,0.045,0.055,0.072c0.408,0.764,1.188,1.239,2.037,1.239s1.628-0.475,2.036-1.239   c0.032-0.06,0.076-0.11,0.118-0.163v-1.119c0-0.497,0.403-0.9,0.9-0.9s0.9,0.403,0.9,0.9v1.127   c0.039,0.051,0.082,0.098,0.112,0.155c0.407,0.764,1.188,1.239,2.036,1.239c0.849,0,1.629-0.475,2.036-1.238   c0.046-0.086,0.104-0.164,0.169-0.234v-1.049c0-0.497,0.403-0.9,0.9-0.9s0.9,0.403,0.9,0.9v1.198   c0.019,0.029,0.044,0.053,0.061,0.084c0.408,0.764,1.189,1.239,2.038,1.239c1.28,0,2.321-1.042,2.321-2.322l0.005-2.937   c0-0.396,0.205-0.763,0.54-0.973C69.485,62.191,72.672,56.73,72.672,48.609z M67.877,53.935c-0.354,3.455-2.888,7.126-6.887,7.126   c0,0,0,0,0,0c-0.458,0-0.929-0.049-1.399-0.146c-1.79-0.371-3.228-1.319-4.158-2.742c-1.057-1.617-1.402-3.78-0.946-5.936   c0.641-3.028,2.956-6.083,6.683-6.083c0.471,0,0.957,0.051,1.443,0.152C66.209,47.05,68.276,50.044,67.877,53.935z M62.248,48.068   c-0.367-0.076-0.73-0.115-1.079-0.115c-2.719,0-4.431,2.338-4.922,4.656c-0.357,1.69-0.105,3.359,0.692,4.578   c0.672,1.028,1.687,1.689,3.016,1.964c0.351,0.072,0.699,0.109,1.035,0.109c2.944,0,4.823-2.839,5.097-5.51   C66.324,51.437,65.44,48.729,62.248,48.068z M45.512,52.237c0.456,2.154,0.112,4.318-0.945,5.935   c-0.93,1.423-2.368,2.372-4.157,2.743c-0.471,0.097-0.942,0.146-1.4,0.146c-4,0-6.534-3.672-6.887-7.127   c-0.398-3.891,1.668-6.885,5.265-7.629c0.486-0.101,0.972-0.152,1.443-0.152C42.558,46.154,44.873,49.209,45.512,52.237z    M43.751,52.61c-0.49-2.318-2.201-4.656-4.921-4.656c-0.349,0-0.711,0.039-1.078,0.115c-3.192,0.66-4.076,3.369-3.839,5.683   c0.273,2.671,2.152,5.51,5.097,5.51c0.336,0,0.684-0.037,1.035-0.109c1.329-0.275,2.343-0.937,3.015-1.965   C43.856,55.968,44.108,54.3,43.751,52.61z"/></g><text x="0" y="115" fill="#000000" font-size="5px" font-weight="bold" font-family="'Helvetica Neue', Helvetica, Arial-Unicode, Arial, Sans-serif">Created by Imogen Oh</text><text x="0" y="120" fill="#000000" font-size="5px" font-weight="bold" font-family="'Helvetica Neue', Helvetica, Arial-Unicode, Arial, Sans-serif">from the Noun Project</text></svg>