<svg xmlns="http://www.w3.org/2000/svg" xmlns:xlink="http://www.w3.org/1999/xlink" version="1.1" x="0px" y="0px" viewBox="0 0 109 136.25" enable-background="new 0 0 109 109" xml:space="preserve"><path fill-rule="evenodd" clip-rule="evenodd" fill="#000000" d="M79.701,20.653l-1.376-0.157v-4.92c0-1.801-1.459-3.26-3.26-3.26  l-46.089,2.587l0.099,0.011c-1.695,0.116-3.035,1.523-3.035,3.249v0.575v2.012v49.827v0.575c0,0.229,0.028,0.441,0.081,0.638  c0,0,0,0,0,0c0.386,1.648,2.108,3.458,3.179,4.633l17.979,21.841c2.766,3.169,4.922,1.732,4.922-1.24V91.53l4.79,3.58  c1.8,0,3.26-1.459,3.26-3.26v-2.737l5.364,2.547c1.801,0,3.26-1.459,3.26-3.26v-4.103l3.927,1.038c1.8,0,3.26-1.459,3.26-3.26V79.17  l3.64,0.416c1.8,0,3.259-1.459,3.259-3.26V23.913C82.96,22.112,81.697,20.899,79.701,20.653z M57.95,91.85  c0,0.329-0.166,0.62-0.419,0.793L52.2,88.658v-3.37v-8.839v0V50.361c0-5.847-2.048-7.5-3.26-9.009L31.138,19.724l24.451,18.277  c0.255,0.201,0.507,0.388,0.751,0.57c1.208,0.899,1.61,1.275,1.61,1.729v36.806V88.02V91.85z M66.574,88.4  c0,0.4-0.246,0.743-0.593,0.888l-5.731-2.722v-9.199V40.299c0-2.002-1.761-2.937-3.26-4.123L34.617,19.588l29.948,15.188  c0.259,0.142,0.501,0.269,0.737,0.393c0.462,0.242,1.085,0.569,1.27,0.754c0.001,0.015,0.002,0.037,0.002,0.065v42.102V88.4z   M73.761,82.076c0,0.457-0.321,0.84-0.75,0.937l-4.138-1.093v-3.568V35.987c0-1.801-1.438-2.253-3.26-3.26L37.863,19.546  l34.291,9.064c0.882,0.288,1.279,0.535,1.458,0.693c0.113,0.101,0.15,0.15,0.15,0.359v49.246V82.076z M80.661,76.326  c0,0.498-0.382,0.909-0.868,0.956l-3.732-0.426V29.663c0-1.8-1.373-2.655-3.26-3.26l-28.096-6.852l34.724,3.387  c1.232,0.154,1.232,0.729,1.232,0.975V76.326z"/><text x="0" y="124" fill="#000000" font-size="5px" font-weight="bold" font-family="'Helvetica Neue', Helvetica, Arial-Unicode, Arial, Sans-serif">Created by Samy Menai</text><text x="0" y="129" fill="#000000" font-size="5px" font-weight="bold" font-family="'Helvetica Neue', Helvetica, Arial-Unicode, Arial, Sans-serif">from the Noun Project</text></svg>