<svg xmlns="http://www.w3.org/2000/svg" xmlns:xlink="http://www.w3.org/1999/xlink" version="1.1" x="0px" y="0px" viewBox="0 0 100 125" enable-background="new 0 0 100 100" xml:space="preserve"><g><path fill="#000000" d="M81.748,49.117c-1.11-1.653-2.967-2.233-4.609-2.503c0.006-0.064,0.03-0.124,0.026-0.19l-0.148-2.519   c-0.918-13.249-11.78-22.161-27.034-22.177c-15.252,0.018-26.115,8.93-27.032,22.188l-0.148,2.507   c-0.004,0.069,0.021,0.13,0.027,0.196c-1.635,0.272-3.476,0.855-4.577,2.498c-1.366,2.036-1.188,4.823-0.833,7.282   c0.753,5.179,3.563,7.58,8.565,7.32c0.479,5.456,5.896,14.555,23.999,14.555c20.645,0,23.561-11.466,23.971-14.579   c0.259,0.014,0.531,0.045,0.778,0.045c4.561,0,7.134-2.415,7.847-7.342C82.936,53.944,83.116,51.158,81.748,49.117z M74.642,44.056   l0.135,2.282c-2.495-0.25-4.951-0.433-7.249-0.589c-1.289-0.087-2.581-0.161-3.875-0.229c-2.088-3.084-4.142-6.191-6.111-9.25   c1.841-3.078,3.657-6.202,5.418-9.307C69.258,30.021,74.057,35.607,74.642,44.056z M43.901,37.24   c2.02,0.029,4.05,0.045,6.082,0.045c1.979,0,3.958-0.017,5.927-0.044c1.74,2.704,3.548,5.441,5.385,8.171   c-7.574-0.328-15.211-0.326-22.787,0.008C40.321,42.728,42.129,39.992,43.901,37.24z M61.177,26.179   c-1.729,3.045-3.517,6.121-5.34,9.167c-3.887,0.054-7.82,0.054-11.707,0c-1.811-3.024-3.599-6.101-5.34-9.166   c3.512-1.39,7.38-2.067,11.192-2.072C53.796,24.111,57.665,24.789,61.177,26.179z M36.894,27.02   c1.76,3.104,3.563,6.209,5.378,9.247c-2.011,3.122-4.068,6.231-6.126,9.265c-1.227,0.065-2.453,0.135-3.675,0.217   c-2.309,0.157-4.776,0.341-7.281,0.592l0.136-2.271C25.907,35.663,30.652,30.092,36.894,27.02z M49.983,75.895   c-18.754,0-21.271-9.853-21.606-12.386c1.428-0.132,2.864-0.245,4.27-0.345l0.145-0.01c0.862-0.062,1.729-0.109,2.596-0.161   c0.114,1.754,0.431,3.328,0.971,4.667c0.105,0.263,0.358,0.423,0.626,0.423c0.084,0,0.17-0.016,0.252-0.049   c0.346-0.139,0.514-0.532,0.374-0.878c-0.485-1.206-0.771-2.639-0.877-4.248c0.893-0.049,1.786-0.086,2.681-0.125   c0.313,5.504,3.801,8.413,10.147,8.413c6.362,0,9.851-2.922,10.15-8.452c0.895,0.036,1.788,0.074,2.682,0.12   c-0.102,1.623-0.388,3.07-0.88,4.289c-0.14,0.346,0.027,0.739,0.373,0.878c0.083,0.033,0.169,0.049,0.253,0.049   c0.267,0,0.52-0.16,0.626-0.423c0.547-1.355,0.864-2.947,0.974-4.72c1.158,0.066,2.316,0.134,3.47,0.216l0.155,0.011   c1.392,0.099,2.813,0.211,4.228,0.341C71.256,66.033,68.746,75.895,49.983,75.895z M41.787,62.684   c2.744-0.094,5.487-0.145,8.212-0.146c2.435,0.001,4.885,0.047,7.337,0.122c-0.234,4.247-2.657,6.155-7.775,6.155   C44.452,68.815,42.028,66.914,41.787,62.684z M80.224,56.058c-0.604,4.179-2.595,5.693-6.875,5.222   c-1.938-0.213-3.909-0.354-5.815-0.49l-0.156-0.011c-5.768-0.41-11.613-0.619-17.376-0.621H50c0,0,0,0-0.001,0h-0.001   c-5.763,0.002-11.608,0.211-17.376,0.621l-0.146,0.01c-1.909,0.137-3.883,0.277-5.825,0.491c-4.281,0.472-6.27-1.044-6.877-5.222   c-0.273-1.892-0.469-4.241,0.454-5.615c0.794-1.184,2.471-1.451,4.419-1.658c2.738-0.291,5.456-0.49,7.984-0.662   c11.503-0.779,23.239-0.778,34.734,0c2.528,0.171,5.245,0.371,7.985,0.663c1.947,0.206,3.624,0.473,4.42,1.657   C80.695,51.821,80.498,54.167,80.224,56.058z"/></g><text x="0" y="115" fill="#000000" font-size="5px" font-weight="bold" font-family="'Helvetica Neue', Helvetica, Arial-Unicode, Arial, Sans-serif">Created by Imogen Oh</text><text x="0" y="120" fill="#000000" font-size="5px" font-weight="bold" font-family="'Helvetica Neue', Helvetica, Arial-Unicode, Arial, Sans-serif">from the Noun Project</text></svg>